<svg width="117" height="49" viewBox="0 0 117 49" fill="none" xmlns="http://www.w3.org/2000/svg">
  <g clip-path="url(#clip0_389_765)">
    <path d="M21.2944 9.65369C11.3079 9.65369 3.18555 17.776 3.18555 27.7625C3.18555 37.749 11.3079 45.8714 21.2944 45.8714H96.7738C106.757 45.8714 114.883 37.7453 114.883 27.7625C114.883 17.776 106.76 9.65369 96.7738 9.65369H21.2944Z" fill="white"/>
    <path d="M96.7788 47.4138H21.2957C10.4585 47.4138 1.64453 38.5961 1.64453 27.7626C1.64453 16.9291 10.4585 8.11139 21.2957 8.11139H96.7751C107.612 8.11139 116.426 16.9291 116.426 27.7626C116.426 38.5961 107.612 47.4138 96.7788 47.4138ZM21.2957 9.65375C11.3092 9.65375 3.18689 17.7761 3.18689 27.7626C3.18689 37.7491 11.3092 45.8714 21.2957 45.8714H96.7751C106.758 45.8714 114.884 37.7454 114.884 27.7626C114.884 17.7761 106.762 9.65375 96.7751 9.65375H21.2957Z" fill="#D0D0D0"/>
    <path d="M87.7217 16.7663C84.7923 16.7663 82.4141 19.1409 82.4141 22.0739C82.4141 25.0033 84.7886 27.3779 87.7217 27.3779C90.6548 27.3779 93.0293 25.0033 93.0293 22.0739C93.0256 19.1409 90.6511 16.7663 87.7217 16.7663ZM87.7217 24.7962C86.22 24.7962 84.9995 23.5793 84.9995 22.0739C84.9995 20.5686 86.22 19.3517 87.7217 19.3517C89.2234 19.3517 90.4439 20.5686 90.4439 22.0739C90.4439 23.5756 89.2234 24.7962 87.7217 24.7962Z" fill="black"/>
    <path d="M63.384 16.7663C60.4546 16.7663 58.0801 19.1409 58.0801 22.0739C58.0801 25.0033 60.4546 27.3779 63.384 27.3779C66.3171 27.3779 68.6917 25.0033 68.6917 22.0739C68.6917 19.1409 66.3134 16.7663 63.384 16.7663ZM63.384 24.7962C61.8823 24.7962 60.6618 23.5793 60.6618 22.0739C60.6618 20.5686 61.8823 19.3517 63.384 19.3517C64.8894 19.3517 66.1063 20.5686 66.1063 22.0739C66.1063 23.5756 64.8894 24.7962 63.384 24.7962Z" fill="black"/>
    <path d="M82.0753 24.9441C81.7388 25.0403 81.2283 25.1364 81.0323 25.1364C80.1261 25.1364 79.9264 24.822 79.9264 23.9565V19.0558H82.0975V17.0067H79.9264V14.1106H77.4853L76.9711 17.0067H75.2697H75.1329C73.7422 17.0141 72.6917 17.8611 72.0223 19.1926L71.1753 17.0067H69.4258V27.1892H72.418V22.7582C72.418 20.5241 73.7385 19.1001 75.2993 19.0558H76.9378V24.1156C76.9378 26.4975 78.1584 27.3852 80.1483 27.3852C81.1729 27.3852 81.9607 27.167 82.4341 27.0117L82.0753 24.9441Z" fill="black"/>
    <path d="M96.6531 20.2281V27.1891H93.7422V17.0065H95.5065L96.0983 18.56" fill="black"/>
    <path d="M96.0879 18.5713C96.9719 17.5467 98.1814 16.7663 99.598 16.7663C102.021 16.7663 103.019 18.697 103.019 20.4909V27.1892H100.023V20.576C100.023 19.7031 99.2984 19.2296 98.5068 19.2296C97.6672 19.2296 97.1272 19.7105 96.6538 20.2246" fill="black"/>
    <path d="M46.4082 13.3191H49.7407L54.3197 22.0406V13.3191H57.0827V27.1892H54.0608L49.1711 17.6022V27.1892H46.4082V13.3191Z" fill="black"/>
    <path d="M111.856 8.11139V8.60702H111.127V11.0519H110.562V8.60702H109.848V8.11139H111.856Z" fill="#B2B2B2"/>
    <path d="M112.264 11.0519V8.11139H113.029L113.54 10.0384L114.058 8.11139H114.834V11.0519H114.365V8.75126H114.353L113.758 11.0519H113.344L112.745 8.75126H112.73V11.0519H112.264Z" fill="#B2B2B2"/>
    <path d="M45.5742 39.48L46.2659 38.4037C46.8281 38.8179 47.6714 39.2063 48.6996 39.2063C49.6983 39.2063 50.316 38.755 50.316 37.9672C50.316 37.061 49.5355 36.8206 48.2521 36.3768C47.1018 35.9736 45.9737 35.3929 45.9737 33.7655C45.9737 32.2379 47.1758 31.4094 48.7958 31.4094C49.8721 31.4094 50.6636 31.6203 51.3035 31.9975L50.7487 33.1441C50.2124 32.8667 49.5725 32.6781 48.8217 32.6781C47.9192 32.6781 47.3792 33.0184 47.3792 33.7322C47.3792 34.5718 48.008 34.7863 49.1841 35.1747C50.4121 35.5742 51.7658 36.1438 51.7658 37.945C51.7658 39.4726 50.6747 40.4786 48.7181 40.4786C47.2682 40.4712 46.203 39.9719 45.5742 39.48Z" fill="#B2B2B2"/>
    <path d="M54.3984 31.5425H59.6395V32.7631H55.889V35.1673H58.8517V36.3619H55.889V39.1397H59.8688V40.3565H54.3984V31.5425Z" fill="#B2B2B2"/>
    <path d="M62 35.9588C62 33.3882 63.2317 31.4094 65.6876 31.4094C66.7898 31.4094 67.659 31.7571 68.2693 32.471L67.4001 33.477C66.8749 32.9629 66.4273 32.7114 65.7098 32.7114C64.2673 32.7114 63.6015 33.8913 63.6015 36.0735C63.6015 38.1226 64.3043 39.1582 65.7246 39.1582C66.5124 39.1582 67.0672 38.7439 67.5517 38.2298L68.4283 39.21C67.7885 39.9645 66.9895 40.4786 65.7098 40.4786C63.1799 40.4712 62 38.5405 62 35.9588Z" fill="#B2B2B2"/>
    <path d="M70.8633 36.9833V31.5425H72.365V37.2237C72.365 38.4369 72.6645 39.2284 73.9443 39.2284C75.213 39.2284 75.5273 38.4369 75.5273 37.2237V31.5425H77.0438V36.9833C77.0438 39.1656 76.2042 40.4712 73.9332 40.4712C71.6992 40.4712 70.8633 39.1693 70.8633 36.9833Z" fill="#B2B2B2"/>
    <path d="M86.2398 40.3602H84.6087L82.9184 36.6209H81.5277V40.3602H80.0371V31.5425H82.911C84.6901 31.5425 86.0808 32.1824 86.0808 34.1131C86.0808 35.4299 85.2893 36.0919 84.4127 36.4063L86.2398 40.3602ZM82.8555 35.4706C83.9725 35.4706 84.5458 35.1081 84.5458 34.0909C84.5458 33.1108 83.9577 32.7631 82.9406 32.7631H81.524V35.4706H82.8555Z" fill="#B2B2B2"/>
    <path d="M88.791 31.5425H94.0358V32.7631H90.2816V35.1673H93.2406V36.3619H90.2816V39.1397H94.2577V40.3565H88.791V31.5425Z" fill="#B2B2B2"/>
    <path d="M96.7773 31.5425H98.9781C101.852 31.5425 103.232 33.0997 103.232 35.9181C103.232 38.792 101.826 40.3565 99.0557 40.3565H96.781V31.5425H96.7773ZM98.893 39.1397C100.949 39.1397 101.652 38.1891 101.652 35.9181C101.652 33.9245 101.101 32.7594 99.0779 32.7594H98.2753V39.1397H98.893Z" fill="#B2B2B2"/>
    <path d="M21.2047 48.9671C9.51306 48.9671 0 39.4541 0 27.7625C0 16.0709 9.51306 6.56152 21.2047 6.56152C32.8926 6.56152 42.4056 16.0746 42.4056 27.7625C42.4056 39.4541 32.8926 48.9671 21.2047 48.9671ZM21.2047 13.2673C17.3358 13.2673 13.6926 14.7763 10.9519 17.5134C8.21482 20.2541 6.70575 23.8936 6.70575 27.7625C6.70575 31.6313 8.21482 35.2708 10.9519 38.0116C13.6926 40.7486 17.3321 42.254 21.2047 42.2577C25.0735 42.2577 28.713 40.7486 31.4575 38.0116C34.1908 35.2708 35.6999 31.6313 35.6999 27.7625C35.6999 23.8936 34.1908 20.2504 31.4538 17.5097C28.713 14.7763 25.0735 13.2673 21.2047 13.2673Z" fill="#FDC300"/>
    <path d="M45.9521 3.29565H44.2988V4.94897H45.9521V3.29565Z" fill="#FDC300"/>
    <path d="M45.9521 0H44.2988V1.65702H45.9521V0Z" fill="#FDC300"/>
    <path d="M41.1908 4.93787H39.6484V6.5505H41.1908V4.93787Z" fill="#FDC300"/>
    <path d="M38.145 8.10748H36.5879V9.64984H38.145V8.10748Z" fill="black"/>
    <path d="M42.9224 6.55048H41.1914V8.10393H42.9224V6.55048Z" fill="black"/>
    <path d="M36.5888 6.62811H35.0391V8.10759H36.5888V6.62811Z" fill="black"/>
    <path d="M41.1908 8.10754H39.6484V9.6499H41.1908V8.10754Z" fill="black"/>
    <path d="M44.2989 1.65698H42.6641V3.29551H44.2989V1.65698Z" fill="black"/>
    <path d="M42.6629 3.29565H39.6484V4.93788H42.6629V3.29565Z" fill="black"/>
    <path d="M39.6462 4.93787H38.1445V8.10765H39.6462V4.93787Z" fill="black"/>
    <path d="M38.1457 9.64996V11.2071H36.5885V9.64996H34.0068V10.7707H32.6235V12.154H34.1696V13.6963H32.6235V12.154H30.9813V14.5692H29.4278V16.1116H28.3959V17.6614H27.2604C25.988 19.5551 22.7961 25.4582 21.8307 27.8624C18.3502 23.0208 15.6502 21.1048 13.5234 20.4095C12.3768 20.0655 10.9935 21.312 12.8983 23.2797C17.2739 28.0917 18.6535 32.0789 19.9813 35.2561C20.6841 36.9316 23.8391 37.1942 24.4753 35.4854C25.8216 31.8792 27.7745 27.8254 30.0899 24.4966V22.773H31.3253V21.2158H32.6235V19.4145H34.1733V17.6761H32.605V16.0968H34.1733V17.6761H35.7082L35.7045 16.1116H36.9325V14.2253H38.3158V12.927H39.6473V9.64996H38.1457Z" fill="black"/>
  </g>
  <defs>
    <clipPath id="clip0_389_765">
      <rect width="116.428" height="48.9671" fill="white"/>
    </clipPath>
  </defs>
</svg>
