<svg width="95" height="64" viewBox="0 0 95 64" fill="none" xmlns="http://www.w3.org/2000/svg">
  <path d="M9.40396 63.1583V52.726H16.189V54.3102H11.2938V57.1424H15.8375V58.7266H11.2938V61.5741H16.2298V63.1583H9.40396ZM19.04 52.726L21.3373 56.5464H21.4188L23.7264 52.726H25.8811L22.6668 57.9421L25.932 63.1583H23.7416L21.4188 59.3633H21.3373L19.0145 63.1583H16.8344L20.1301 57.9421L16.8751 52.726H19.04ZM35.2599 56.2459H33.3548C33.3004 55.9334 33.2003 55.6567 33.0542 55.4156C32.9082 55.1711 32.7265 54.9639 32.5092 54.7941C32.2918 54.6243 32.0439 54.497 31.7655 54.4121C31.4904 54.3238 31.1933 54.2796 30.874 54.2796C30.3069 54.2796 29.8043 54.4223 29.3663 54.7075C28.9282 54.9894 28.5852 55.4037 28.3373 55.9504C28.0894 56.4938 27.9654 57.1577 27.9654 57.9421C27.9654 58.7402 28.0894 59.4126 28.3373 59.9593C28.5886 60.5027 28.9316 60.9136 29.3663 61.192C29.8043 61.4671 30.3052 61.6046 30.869 61.6046C31.1814 61.6046 31.4734 61.5639 31.7451 61.4824C32.0202 61.3975 32.2664 61.2735 32.4837 61.1105C32.7044 60.9475 32.8895 60.7472 33.0389 60.5094C33.1918 60.2717 33.297 60.0001 33.3548 59.6944L35.2599 59.7046C35.1886 60.2004 35.034 60.6657 34.7963 61.1003C34.562 61.535 34.2547 61.9188 33.8743 62.2516C33.494 62.581 33.0491 62.839 32.5397 63.0258C32.0304 63.2092 31.4649 63.3009 30.8435 63.3009C29.9266 63.3009 29.1082 63.0886 28.3882 62.6642C27.6683 62.2397 27.1012 61.6267 26.6869 60.8253C26.2726 60.0238 26.0654 59.0628 26.0654 57.9421C26.0654 56.8181 26.2743 55.857 26.692 55.059C27.1097 54.2576 27.6785 53.6446 28.3984 53.2201C29.1184 52.7956 29.9334 52.5834 30.8435 52.5834C31.4242 52.5834 31.9641 52.6649 32.4633 52.8279C32.9625 52.9909 33.4074 53.2303 33.7979 53.5461C34.1885 53.8585 34.5094 54.2423 34.7607 54.6973C35.0154 55.149 35.1818 55.6652 35.2599 56.2459ZM36.3344 63.1583V52.726H43.1194V54.3102H38.2242V57.1424H42.7679V58.7266H38.2242V61.5741H43.1602V63.1583H36.3344ZM44.3913 63.1583V52.726H46.2811V61.5741H50.8758V63.1583H44.3913ZM51.8599 63.1583V52.726H58.6449V54.3102H53.7497V57.1424H58.2935V58.7266H53.7497V61.5741H58.6857V63.1583H51.8599ZM68.4898 52.726V63.1583H66.8089L61.8933 56.0523H61.8067V63.1583H59.9168V52.726H61.608L66.5185 59.8371H66.6102V52.726H68.4898ZM69.4344 54.3102V52.726H77.7578V54.3102H74.5334V63.1583H72.6589V54.3102H69.4344ZM78.7063 63.1583V52.726H85.4913V54.3102H80.5961V57.1424H85.1398V58.7266H80.5961V61.5741H85.5321V63.1583H78.7063Z" fill="#212529"/>
  <g clip-path="url(#clip0_389_762)">
    <path d="M17.7809 27.6283H0V45.909H17.7809V27.6283Z" fill="#00B67A"/>
    <path d="M37.0446 27.6282H19.2637V45.909H37.0446V27.6282Z" fill="#00B67A"/>
    <path d="M56.3043 27.6282H38.5234V45.909H56.3043V27.6282Z" fill="#00B67A"/>
    <path d="M75.57 27.6282H57.7891V45.909H75.57V27.6282Z" fill="#00B67A"/>
    <path d="M94.8299 27.6283H85.9395V45.9091H94.8299V27.6283Z" fill="#DCDCE6"/>
    <path d="M85.9393 27.6284H77.0488V45.9091H85.9393V27.6284Z" fill="#00B67A"/>
    <path d="M8.88933 39.9487L11.5935 39.2441L12.7233 42.8241L8.88933 39.9487ZM15.1126 35.3214H10.3525L8.88933 30.7131L7.42611 35.3214H2.66602L6.51854 38.1778L5.05532 42.786L8.90785 39.9297L11.2786 38.1778L15.1126 35.3214Z" fill="white"/>
    <path d="M28.153 39.9487L30.8572 39.2441L31.987 42.8241L28.153 39.9487ZM34.3763 35.3214H29.6162L28.153 30.7131L26.6898 35.3214H21.9297L25.7822 38.1778L24.319 42.786L28.1715 39.9297L30.5423 38.1778L34.3763 35.3214Z" fill="white"/>
    <path d="M47.4147 39.9487L50.1189 39.2441L51.2487 42.8241L47.4147 39.9487ZM53.638 35.3214H48.8779L47.4147 30.7131L45.9515 35.3214H41.1914L45.0439 38.1778L43.5807 42.786L47.4332 39.9297L49.804 38.1778L53.638 35.3214Z" fill="white"/>
    <path d="M66.6764 39.9487L69.3806 39.2441L70.5104 42.8241L66.6764 39.9487ZM72.8998 35.3214H68.1397L66.6764 30.7131L65.2132 35.3214H60.4531L64.3057 38.1778L62.8424 42.786L66.695 39.9297L69.0657 38.1778L72.8998 35.3214Z" fill="white"/>
    <path d="M85.9421 39.9487L88.6462 39.2441L89.7761 42.8241L85.9421 39.9487ZM92.1654 35.3214H87.4053L85.9421 30.7131L84.4788 35.3214H79.7188L83.5713 38.1778L82.1081 42.786L85.9606 39.9297L88.3314 38.1778L92.1654 35.3214Z" fill="white"/>
  </g>
  <path d="M25.9162 7.93176H35.1262V9.65322H31.5048V19.3305H29.5135V9.65322H25.9082L25.9162 7.93176ZM34.7327 11.0771H36.435V12.6698H36.4671C36.5233 12.4446 36.6277 12.2274 36.7803 12.0182C36.9328 11.8091 37.1175 11.608 37.3343 11.439C37.5511 11.2621 37.792 11.1253 38.057 11.0127C38.3219 10.9081 38.5949 10.8518 38.8679 10.8518C39.0767 10.8518 39.2293 10.8599 39.3096 10.8679C39.3899 10.876 39.4702 10.892 39.5585 10.9001V12.6537C39.43 12.6296 39.3015 12.6135 39.165 12.5974C39.0285 12.5813 38.9001 12.5733 38.7716 12.5733C38.4665 12.5733 38.1774 12.6376 37.9044 12.7583C37.6314 12.879 37.3985 13.064 37.1978 13.2973C36.9971 13.5386 36.8365 13.8282 36.716 14.1821C36.5956 14.5361 36.5394 14.9383 36.5394 15.3968V19.3224H34.7247L34.7327 11.0771ZM47.9012 19.3305H46.1187V18.1801H46.0865C45.8617 18.5984 45.5325 18.9282 45.0909 19.1776C44.6492 19.427 44.1996 19.5557 43.7419 19.5557C42.6579 19.5557 41.871 19.2902 41.3892 18.7513C40.9075 18.2123 40.6666 17.3998 40.6666 16.3139V11.0771H42.4813V16.1369C42.4813 16.8609 42.6178 17.3757 42.8988 17.6733C43.1718 17.971 43.5653 18.1238 44.0631 18.1238C44.4485 18.1238 44.7617 18.0675 45.0186 17.9468C45.2756 17.8262 45.4843 17.6733 45.6369 17.4722C45.7975 17.2792 45.9099 17.0378 45.9822 16.7643C46.0544 16.4908 46.0865 16.1932 46.0865 15.8714V11.0851H47.9012V19.3305ZM50.9926 16.6839C51.0488 17.2148 51.2496 17.5849 51.5948 17.8021C51.9481 18.0112 52.3657 18.1238 52.8555 18.1238C53.0241 18.1238 53.2168 18.1077 53.4336 18.0836C53.6504 18.0595 53.8592 18.0032 54.0439 17.9308C54.2366 17.8584 54.3891 17.7457 54.5176 17.6009C54.6381 17.4562 54.6943 17.2711 54.6862 17.0379C54.6782 16.8046 54.5899 16.6115 54.4293 16.4667C54.2687 16.3139 54.0679 16.2012 53.819 16.1047C53.5701 16.0162 53.2891 15.9358 52.9679 15.8714C52.6467 15.8071 52.3255 15.7347 51.9963 15.6623C51.6591 15.5899 51.3299 15.4934 51.0167 15.3888C50.7036 15.2842 50.4225 15.1394 50.1736 14.9544C49.9247 14.7774 49.7239 14.5441 49.5794 14.2626C49.4269 13.981 49.3546 13.6351 49.3546 13.2168C49.3546 12.7663 49.467 12.3963 49.6838 12.0906C49.9006 11.785 50.1816 11.5436 50.5108 11.3586C50.8481 11.1736 51.2174 11.0449 51.627 10.9644C52.0365 10.892 52.4299 10.8518 52.7993 10.8518C53.2248 10.8518 53.6344 10.9001 54.0198 10.9886C54.4052 11.0771 54.7585 11.2219 55.0716 11.431C55.3848 11.6321 55.6417 11.8976 55.8505 12.2193C56.0593 12.5411 56.1878 12.9353 56.244 13.3938H54.349C54.2607 12.9594 54.0679 12.6618 53.7548 12.517C53.4416 12.3641 53.0803 12.2917 52.6788 12.2917C52.5504 12.2917 52.3978 12.2998 52.2211 12.3239C52.0445 12.348 51.8839 12.3883 51.7233 12.4446C51.5708 12.5009 51.4423 12.5894 51.3299 12.702C51.2255 12.8146 51.1693 12.9594 51.1693 13.1444C51.1693 13.3697 51.2496 13.5466 51.4021 13.6834C51.5547 13.8201 51.7554 13.9328 52.0043 14.0293C52.2533 14.1178 52.5343 14.1982 52.8555 14.2626C53.1767 14.3269 53.5059 14.3993 53.8431 14.4717C54.1723 14.5441 54.4935 14.6407 54.8147 14.7452C55.1359 14.8498 55.4169 14.9946 55.6658 15.1796C55.9148 15.3646 56.1155 15.5899 56.2681 15.8634C56.4206 16.1369 56.5009 16.4828 56.5009 16.885C56.5009 17.3757 56.3885 17.786 56.1637 18.1319C55.9388 18.4697 55.6498 18.7513 55.2965 18.9604C54.9432 19.1696 54.5417 19.3305 54.1081 19.427C53.6745 19.5235 53.2409 19.5718 52.8153 19.5718C52.2934 19.5718 51.8116 19.5155 51.37 19.3948C50.9284 19.2742 50.543 19.0972 50.2218 18.8639C49.9006 18.6226 49.6437 18.3249 49.459 17.971C49.2743 17.617 49.1779 17.1907 49.1619 16.7H50.9926V16.6839ZM56.9827 11.0771H58.3557V8.59943H60.1704V11.0771H61.8085V12.4365H60.1704V16.8448C60.1704 17.0378 60.1785 17.1987 60.1945 17.3435C60.2106 17.4803 60.2507 17.6009 60.3069 17.6975C60.3631 17.794 60.4515 17.8664 60.5719 17.9147C60.6924 17.9629 60.8449 17.9871 61.0537 17.9871C61.1822 17.9871 61.3106 17.9871 61.4391 17.979C61.5676 17.971 61.6961 17.9549 61.8245 17.9227V19.3305C61.6238 19.3546 61.423 19.3707 61.2384 19.3948C61.0457 19.4189 60.853 19.427 60.6522 19.427C60.1704 19.427 59.785 19.3787 59.4959 19.2902C59.2069 19.2018 58.974 19.065 58.8134 18.888C58.6448 18.7111 58.5404 18.4939 58.4762 18.2284C58.42 17.9629 58.3798 17.6573 58.3718 17.3194V12.4526H56.9988V11.0771H56.9827ZM63.0932 11.0771H64.8115V12.1952H64.8436C65.1006 11.7126 65.4539 11.3747 65.9116 11.1655C66.3693 10.9564 66.8591 10.8518 67.3971 10.8518C68.0475 10.8518 68.6095 10.9644 69.0913 11.1977C69.5731 11.423 69.9746 11.7367 70.2957 12.1389C70.6169 12.5411 70.8498 13.0077 71.0104 13.5386C71.171 14.0695 71.2513 14.6407 71.2513 15.244C71.2513 15.799 71.179 16.338 71.0345 16.8528C70.8899 17.3757 70.6731 17.8342 70.3841 18.2364C70.095 18.6387 69.7256 18.9524 69.276 19.1937C68.8263 19.435 68.3044 19.5557 67.6941 19.5557C67.4292 19.5557 67.1642 19.5316 66.8992 19.4833C66.6342 19.435 66.3773 19.3546 66.1364 19.25C65.8955 19.1454 65.6627 19.0087 65.4619 18.8398C65.2532 18.6708 65.0845 18.4778 64.94 18.2606H64.9079V22.3792H63.0932V11.0771ZM69.4366 15.2118C69.4366 14.8418 69.3884 14.4798 69.292 14.1258C69.1957 13.7719 69.0512 13.4662 68.8584 13.1927C68.6657 12.9192 68.4248 12.702 68.1438 12.5411C67.8547 12.3802 67.5255 12.2917 67.1562 12.2917C66.3934 12.2917 65.8152 12.5572 65.4298 13.0881C65.0444 13.619 64.8517 14.3269 64.8517 15.2118C64.8517 15.6301 64.8999 16.0162 65.0042 16.3702C65.1086 16.7241 65.2532 17.0298 65.4619 17.2872C65.6627 17.5446 65.9036 17.7457 66.1846 17.8905C66.4656 18.0434 66.7948 18.1158 67.1642 18.1158C67.5817 18.1158 67.927 18.0273 68.2161 17.8584C68.5051 17.6894 68.738 17.4642 68.9227 17.1987C69.1074 16.9252 69.2439 16.6195 69.3242 16.2736C69.3964 15.9277 69.4366 15.5738 69.4366 15.2118ZM72.6404 7.93176H74.4551V9.65322H72.6404V7.93176ZM72.6404 11.0771H74.4551V19.3305H72.6404V11.0771ZM76.077 7.93176H77.8917V19.3305H76.077V7.93176ZM83.4562 19.5557C82.7978 19.5557 82.2116 19.4431 81.6977 19.2259C81.1839 19.0087 80.7503 18.703 80.3889 18.3249C80.0356 17.9388 79.7626 17.4803 79.5779 16.9494C79.3933 16.4184 79.2969 15.8312 79.2969 15.1957C79.2969 14.5683 79.3933 13.9891 79.5779 13.4582C79.7626 12.9272 80.0356 12.4687 80.3889 12.0826C80.7422 11.6965 81.1839 11.3988 81.6977 11.1816C82.2116 10.9644 82.7978 10.8518 83.4562 10.8518C84.1147 10.8518 84.7008 10.9644 85.2147 11.1816C85.7286 11.3988 86.1622 11.7045 86.5235 12.0826C86.8768 12.4687 87.1498 12.9272 87.3345 13.4582C87.5192 13.9891 87.6155 14.5683 87.6155 15.1957C87.6155 15.8312 87.5192 16.4184 87.3345 16.9494C87.1498 17.4803 86.8768 17.9388 86.5235 18.3249C86.1702 18.7111 85.7286 19.0087 85.2147 19.2259C84.7008 19.4431 84.1147 19.5557 83.4562 19.5557ZM83.4562 18.1158C83.8577 18.1158 84.211 18.0273 84.5081 17.8584C84.8052 17.6894 85.0461 17.4642 85.2388 17.1907C85.4315 16.9172 85.568 16.6035 85.6644 16.2576C85.7527 15.9117 85.8009 15.5577 85.8009 15.1957C85.8009 14.8418 85.7527 14.4959 85.6644 14.1419C85.576 13.788 85.4315 13.4823 85.2388 13.2088C85.0461 12.9353 84.8052 12.7181 84.5081 12.5492C84.211 12.3802 83.8577 12.2917 83.4562 12.2917C83.0547 12.2917 82.7014 12.3802 82.4044 12.5492C82.1073 12.7181 81.8664 12.9433 81.6737 13.2088C81.4809 13.4823 81.3444 13.788 81.2481 14.1419C81.1598 14.4959 81.1116 14.8418 81.1116 15.1957C81.1116 15.5577 81.1598 15.9117 81.2481 16.2576C81.3364 16.6035 81.4809 16.9172 81.6737 17.1907C81.8664 17.4642 82.1073 17.6894 82.4044 17.8584C82.7014 18.0353 83.0547 18.1158 83.4562 18.1158ZM88.1455 11.0771H89.5186V8.59943H91.3332V11.0771H92.9713V12.4365H91.3332V16.8448C91.3332 17.0378 91.3413 17.1987 91.3573 17.3435C91.3734 17.4803 91.4135 17.6009 91.4697 17.6975C91.5259 17.794 91.6143 17.8664 91.7347 17.9147C91.8552 17.9629 92.0077 17.9871 92.2165 17.9871C92.345 17.9871 92.4734 17.9871 92.6019 17.979C92.7304 17.971 92.8589 17.9549 92.9873 17.9227V19.3305C92.7866 19.3546 92.5859 19.3707 92.4012 19.3948C92.2085 19.4189 92.0158 19.427 91.815 19.427C91.3332 19.427 90.9478 19.3787 90.6588 19.2902C90.3697 19.2018 90.1368 19.065 89.9762 18.888C89.8076 18.7111 89.7032 18.4939 89.639 18.2284C89.5828 17.9629 89.5426 17.6573 89.5346 17.3194V12.4526H88.1616V11.0771H88.1455Z" fill="#1D1D1B"/>
  <path d="M23.796 7.93163H15.4773L12.9079 0L10.3304 7.93163L2.01172 7.92359L8.74854 12.8306L6.17104 20.7542L12.9079 15.8552L19.6367 20.7542L17.0672 12.8306L23.796 7.93163Z" fill="#00B67A"/>
  <path d="M17.6437 14.6245L17.0656 12.8306L12.9062 15.8553L17.6437 14.6245Z" fill="#005128"/>
  <defs>
    <clipPath id="clip0_389_762">
      <rect width="94.8314" height="18.2808" fill="white" transform="translate(0 27.6283)"/>
    </clipPath>
  </defs>
</svg>
