<svg width="47" height="79" viewBox="0 0 47 79" fill="none" xmlns="http://www.w3.org/2000/svg">
  <path d="M22.6793 15.3407C35.047 15.3585 44.8504 25.3885 44.9493 37.4308C45.0503 49.7584 35.047 59.8806 22.7138 59.8984C10.5438 59.9161 0.479335 50.056 0.418258 37.7306C0.35607 25.4007 10.3439 15.3562 22.6793 15.3407ZM22.6738 56.96C33.3068 56.9611 41.8932 48.3525 42.0109 37.8372C42.1297 27.2119 33.56 18.2824 22.6771 18.2857C11.9341 18.288 3.42882 26.9987 3.35331 37.4741C3.27557 48.2137 11.9886 56.9556 22.6738 56.96Z" fill="black"/>
  <path d="M29.0893 36.7835C29.1905 36.827 29.2675 36.863 29.3456 36.8938C29.9563 37.1354 30.5515 37.4068 31.1149 37.7397C32.5254 38.5739 33.3968 39.7791 33.7489 41.3289C34.1164 42.9433 34.0438 44.5333 33.3451 46.0608C32.3494 48.2349 30.6363 49.6278 28.2817 50.2987C27.1099 50.6327 25.9073 50.7683 24.6882 50.7694C20.8978 50.7715 17.1074 50.7705 13.3169 50.7705C13.2311 50.7705 13.1453 50.7705 13.043 50.7705C13.043 42.1038 13.043 33.4614 13.043 24.8011C13.1255 24.7947 13.2014 24.7841 13.2773 24.7841C17.1822 24.7831 21.087 24.7756 24.9908 24.7884C26.255 24.7926 27.5005 24.9611 28.6789 25.4318C30.9652 26.3455 32.2636 28.0023 32.5936 30.3598C32.7158 31.2322 32.664 32.1025 32.4429 32.959C32.1095 34.2522 31.3866 35.2953 30.2578 36.0669C29.8947 36.3139 29.5052 36.5291 29.0893 36.7835ZM16.621 47.7558C16.7212 47.7611 16.807 47.7685 16.8917 47.7685C19.4685 47.7695 22.0454 47.7695 24.6222 47.7685C25.4265 47.7685 26.2198 47.6847 26.9911 47.4579C28.4225 47.0371 29.4623 46.1912 29.9937 44.8216C30.3117 44.0033 30.3755 43.1532 30.2589 42.2914C30.1323 41.3607 29.7406 40.5551 28.9914 39.9307C28.4698 39.4961 27.8658 39.211 27.2144 39.0127C26.3001 38.735 25.3561 38.628 24.4054 38.6216C21.8638 38.6046 19.3222 38.6131 16.7806 38.6121C16.7311 38.6121 16.6805 38.6248 16.621 38.6322C16.621 41.6776 16.621 44.7082 16.621 47.7558ZM16.6177 35.7691C16.752 35.7691 16.8565 35.7691 16.961 35.7691C19.0097 35.7691 21.0584 35.7733 23.106 35.7659C23.633 35.7638 24.1612 35.7458 24.686 35.7065C25.3451 35.6567 25.992 35.5338 26.6093 35.2984C27.8163 34.8405 28.5964 34.019 28.8824 32.7883C29.0321 32.1449 29.0497 31.494 28.9451 30.8432C28.7438 29.586 28.0429 28.6977 26.8172 28.209C26.639 28.138 26.4552 28.0776 26.2693 28.0278C25.476 27.8158 24.6618 27.732 23.8443 27.7267C21.5062 27.7129 19.1671 27.7193 16.829 27.7182C16.7619 27.7182 16.6948 27.732 16.6188 27.7405C16.6177 30.4149 16.6177 33.0724 16.6177 35.7691Z" fill="black"/>
  <rect x="0.515625" y="64.5781" width="44.4359" height="2.92433" fill="black"/>
  <path d="M7.65902 9.18459C7.55697 10.1139 7.19252 10.852 6.56565 11.3986C5.94244 11.9453 5.14792 12.2187 4.18212 12.2187C3.05231 12.2187 2.15393 11.8415 1.48698 11.087C0.823668 10.3326 0.492014 9.31215 0.492014 8.02562C0.492014 6.71358 0.823668 5.67306 1.48698 4.90406C2.15393 4.13142 3.05231 3.7451 4.18212 3.7451C5.13699 3.7451 5.92786 4.00386 6.55472 4.52139C7.18158 5.03527 7.54968 5.7332 7.65902 6.61518H5.97524C5.92057 6.18148 5.73288 5.83707 5.41215 5.58195C5.09508 5.32683 4.69053 5.19927 4.19852 5.19927C3.5753 5.19927 3.08693 5.44892 2.73341 5.94823C2.37989 6.44389 2.20313 7.13271 2.20313 8.01469C2.20313 8.8748 2.37807 9.54904 2.72794 10.0374C3.08147 10.5221 3.57166 10.7645 4.19852 10.7645C4.69053 10.7645 5.09508 10.6224 5.41215 10.3381C5.73288 10.0538 5.92057 9.66931 5.97524 9.18459H7.65902ZM11.1742 12.1531C10.2703 12.1531 9.57241 11.8743 9.08039 11.3166C8.59202 10.759 8.34784 9.96452 8.34784 8.93311C8.34784 7.98189 8.59749 7.2384 9.09679 6.70265C9.5961 6.16326 10.2886 5.89356 11.1742 5.89356C12.0817 5.89356 12.7796 6.16872 13.268 6.71905C13.76 7.26573 14.006 8.04566 14.006 9.05885C14.0133 9.17547 14.0042 9.29392 13.9787 9.41419H9.92775C9.9642 9.88434 10.0681 10.236 10.2394 10.4693C10.458 10.7609 10.8225 10.9066 11.3327 10.9066C11.5696 10.9066 11.7883 10.8392 11.9887 10.7044C12.1928 10.5695 12.3149 10.4073 12.355 10.2178H13.9513C13.8165 10.8228 13.5031 11.2966 13.011 11.6392C12.5227 11.9818 11.9104 12.1531 11.1742 12.1531ZM12.3714 8.41376C12.335 8.0566 12.2402 7.77779 12.0871 7.57734C11.8867 7.31129 11.5751 7.17826 11.1523 7.17826C10.7478 7.17826 10.4398 7.33316 10.2284 7.64294C10.0972 7.83975 10.0025 8.09669 9.94415 8.41376H12.3714ZM14.9349 12V6.0521H15.6784H16.4274V7.11813C16.482 7.0015 16.544 6.88852 16.6132 6.77918C16.9813 6.18877 17.457 5.89356 18.0401 5.89356L18.3954 5.89903V7.5008C18.2569 7.48623 18.1002 7.47894 17.9253 7.47894C17.4478 7.47894 17.0907 7.59739 16.8538 7.83428C16.6205 8.07118 16.5039 8.43016 16.5039 8.91125V12H15.7222H14.9349ZM22.5633 12.0328C22.3009 12.0547 21.9784 12.0656 21.5957 12.0656C21.0417 12.0656 20.6426 11.9672 20.3984 11.7704C20.1579 11.5699 20.0376 11.2438 20.0376 10.7918V7.15093H19.2121V6.0521H20.0376V4.45032H21.6066V6.0521H22.5633V7.15093H21.6066V10.5294C21.6066 10.6679 21.6467 10.759 21.7269 10.8028C21.8107 10.8465 21.982 10.8684 22.2408 10.8684H22.5633V12.0328ZM23.6184 12V6.0521H24.4002H25.1874V12H24.4056H23.6184ZM23.602 3.90364H25.1983V5.35781H23.602V3.90364ZM28.4948 7.15093V12H27.7131H26.9258V7.15093H26.0566V6.0521H26.9258V5.55462C26.9258 4.98242 27.0771 4.55601 27.3796 4.27538C27.6857 3.99475 28.1486 3.85443 28.7682 3.85443C29.0451 3.85079 29.2911 3.86355 29.5062 3.8927V5.1446H29.0087C28.801 5.1446 28.6625 5.18652 28.5932 5.27034C28.5276 5.35417 28.4948 5.52546 28.4948 5.78422V6.0521H29.5062V7.15093H28.4948ZM30.4629 12V6.0521H31.2446H32.0318V12H31.2501H30.4629ZM30.4465 3.90364H32.0428V5.35781H30.4465V3.90364ZM35.3535 12.1531C34.4497 12.1531 33.7517 11.8743 33.2597 11.3166C32.7714 10.759 32.5272 9.96452 32.5272 8.93311C32.5272 7.98189 32.7768 7.2384 33.2761 6.70265C33.7754 6.16326 34.4679 5.89356 35.3535 5.89356C36.261 5.89356 36.9589 6.16872 37.4473 6.71905C37.9393 7.26573 38.1853 8.04566 38.1853 9.05885C38.1926 9.17547 38.1835 9.29392 38.158 9.41419H34.1071C34.1435 9.88434 34.2474 10.236 34.4187 10.4693C34.6374 10.7609 35.0018 10.9066 35.5121 10.9066C35.7489 10.9066 35.9676 10.8392 36.1681 10.7044C36.3722 10.5695 36.4943 10.4073 36.5343 10.2178H38.1307C37.9958 10.8228 37.6824 11.2966 37.1904 11.6392C36.702 11.9818 36.0897 12.1531 35.3535 12.1531ZM36.5507 8.41376C36.5143 8.0566 36.4195 7.77779 36.2665 7.57734C36.066 7.31129 35.7544 7.17826 35.3316 7.17826C34.9271 7.17826 34.6191 7.33316 34.4078 7.64294C34.2765 7.83975 34.1818 8.09669 34.1235 8.41376H36.5507ZM41.4162 12.1531C40.6582 12.1531 40.0459 11.8579 39.5794 11.2674C39.1165 10.677 38.8851 9.89892 38.8851 8.93311C38.8851 8.02198 39.1165 7.2876 39.5794 6.72998C40.0422 6.17237 40.6509 5.89356 41.4053 5.89356C42.0795 5.89356 42.6226 6.17783 43.0344 6.74638L43.1 6.83385V3.96377H43.8818H44.669V12H43.9091H43.1492V11.2401L43.1219 11.2784C42.6882 11.8615 42.1196 12.1531 41.4162 12.1531ZM41.8372 7.24933C41.418 7.24933 41.09 7.41151 40.8531 7.73588C40.6162 8.0566 40.4978 8.50306 40.4978 9.07525C40.4978 9.63651 40.6144 10.0757 40.8477 10.3928C41.0846 10.7062 41.4126 10.8629 41.8317 10.8629C42.2545 10.8629 42.5843 10.6971 42.8212 10.3654C43.0581 10.0338 43.1765 9.57273 43.1765 8.98231C43.1765 8.43928 43.0581 8.01469 42.8212 7.70854C42.5843 7.4024 42.2563 7.24933 41.8372 7.24933Z" fill="black"/>
  <path d="M5.4917 75.0244C5.42009 75.6765 5.16434 76.1944 4.72446 76.578C4.28713 76.9616 3.7296 77.1534 3.05188 77.1534C2.25906 77.1534 1.62865 76.8888 1.16063 76.3594C0.695174 75.83 0.462445 75.1139 0.462445 74.2111C0.462445 73.2904 0.695174 72.5602 1.16063 72.0206C1.62865 71.4784 2.25906 71.2073 3.05188 71.2073C3.72193 71.2073 4.2769 71.3889 4.71679 71.7521C5.15667 72.1127 5.41497 72.6024 5.4917 73.2213H4.31015C4.27179 72.917 4.14008 72.6753 3.91502 72.4963C3.69252 72.3173 3.40864 72.2278 3.06339 72.2278C2.62606 72.2278 2.28336 72.403 2.03528 72.7533C1.78721 73.1011 1.66317 73.5845 1.66317 74.2034C1.66317 74.807 1.78593 75.2801 2.03145 75.6228C2.27952 75.9629 2.6235 76.133 3.06339 76.133C3.40864 76.133 3.69252 76.0333 3.91502 75.8338C4.14008 75.6343 4.27179 75.3645 4.31015 75.0244H5.4917ZM8.19621 77.1074C7.54406 77.1074 7.0249 76.9118 6.63872 76.5205C6.2551 76.1292 6.06329 75.6011 6.06329 74.9361C6.06329 74.2558 6.2551 73.7162 6.63872 73.3173C7.0249 72.9157 7.54406 72.715 8.19621 72.715C8.85348 72.715 9.37393 72.9157 9.75755 73.3173C10.1412 73.7162 10.333 74.2558 10.333 74.9361C10.333 75.6011 10.1412 76.1292 9.75755 76.5205C9.37393 76.9118 8.85348 77.1074 8.19621 77.1074ZM8.19621 76.1867C8.52357 76.1867 8.77292 76.0793 8.94427 75.8645C9.11562 75.6497 9.2013 75.3364 9.2013 74.9246C9.2013 74.5026 9.11562 74.183 8.94427 73.9656C8.77292 73.7456 8.52357 73.6357 8.19621 73.6357C7.86886 73.6357 7.61951 73.7456 7.44816 73.9656C7.27936 74.183 7.19497 74.5026 7.19497 74.9246C7.19497 75.3364 7.27936 75.6497 7.44816 75.8645C7.61951 76.0793 7.86886 76.1867 8.19621 76.1867ZM11.1002 77V72.8262H11.6219H12.1475V73.5743C12.1859 73.4924 12.2293 73.4132 12.2779 73.3364C12.5362 72.9221 12.87 72.715 13.2792 72.715L13.5285 72.7188V73.8428C13.4313 73.8326 13.3214 73.8275 13.1986 73.8275C12.8636 73.8275 12.613 73.9106 12.4467 74.0768C12.283 74.2431 12.2012 74.495 12.2012 74.8325V77H11.6526H11.1002ZM14.1462 72.8262H14.6679H15.1934V73.4438L15.2663 73.3403C15.563 72.9234 15.9543 72.715 16.4402 72.715C16.9696 72.715 17.3941 72.9106 17.7138 73.3019C18.0361 73.6932 18.1972 74.2085 18.1972 74.8479C18.1972 75.5256 18.0361 76.0716 17.7138 76.4859C17.3941 76.9003 16.9696 77.1074 16.4402 77.1074C15.9568 77.1074 15.5668 76.913 15.2702 76.5243L15.2471 76.4936V78.6342H14.6986H14.1462V72.8262ZM16.1256 76.2021C16.4197 76.2021 16.6499 76.0921 16.8161 75.8722C16.9824 75.6497 17.0655 75.3415 17.0655 74.9476C17.0655 74.5461 16.9824 74.2328 16.8161 74.0078C16.6525 73.7802 16.4236 73.6663 16.1295 73.6663C15.8354 73.6663 15.6052 73.7827 15.4389 74.0154C15.2753 74.2482 15.1934 74.5717 15.1934 74.986C15.1934 75.3671 15.2753 75.665 15.4389 75.8798C15.6052 76.0947 15.8341 76.2021 16.1256 76.2021ZM20.8633 77.1074C20.2112 77.1074 19.692 76.9118 19.3058 76.5205C18.9222 76.1292 18.7304 75.6011 18.7304 74.9361C18.7304 74.2558 18.9222 73.7162 19.3058 73.3173C19.692 72.9157 20.2112 72.715 20.8633 72.715C21.5206 72.715 22.041 72.9157 22.4247 73.3173C22.8083 73.7162 23.0001 74.2558 23.0001 74.9361C23.0001 75.6011 22.8083 76.1292 22.4247 76.5205C22.041 76.9118 21.5206 77.1074 20.8633 77.1074ZM20.8633 76.1867C21.1907 76.1867 21.44 76.0793 21.6114 75.8645C21.7827 75.6497 21.8684 75.3364 21.8684 74.9246C21.8684 74.5026 21.7827 74.183 21.6114 73.9656C21.44 73.7456 21.1907 73.6357 20.8633 73.6357C20.536 73.6357 20.2866 73.7456 20.1153 73.9656C19.9465 74.183 19.8621 74.5026 19.8621 74.9246C19.8621 75.3364 19.9465 75.6497 20.1153 75.8645C20.2866 76.0793 20.536 76.1867 20.8633 76.1867ZM23.7673 77V72.8262H24.2891H24.8146V73.5743C24.853 73.4924 24.8964 73.4132 24.945 73.3364C25.2033 72.9221 25.5371 72.715 25.9463 72.715L26.1956 72.7188V73.8428C26.0985 73.8326 25.9885 73.8275 25.8657 73.8275C25.5307 73.8275 25.2801 73.9106 25.1138 74.0768C24.9502 74.2431 24.8683 74.495 24.8683 74.8325V77H24.3197H23.7673ZM27.8375 77.1074C27.4514 77.1074 27.1406 76.9974 26.9053 76.7775C26.67 76.555 26.5524 76.2635 26.5524 75.9028C26.5524 75.5218 26.6585 75.2174 26.8708 74.9898C27.0831 74.7597 27.3925 74.6152 27.7992 74.5563L28.5242 74.4566C28.7135 74.431 28.8707 74.3876 28.9961 74.3262C29.0498 74.3006 29.0907 74.2546 29.1188 74.1881C29.1495 74.1216 29.161 74.0538 29.1533 73.9848C29.138 73.8671 29.0779 73.775 28.973 73.7085C28.8477 73.6293 28.6674 73.5896 28.4321 73.5896C28.2224 73.5896 28.0588 73.6408 27.9411 73.7431C27.8235 73.8454 27.7608 73.9899 27.7531 74.1766H26.6982C26.7212 73.6881 26.8874 73.3224 27.1969 73.0794C27.5063 72.8364 27.9603 72.715 28.5587 72.715C29.0779 72.715 29.4871 72.8249 29.7863 73.0449C30.0881 73.2623 30.239 73.5602 30.239 73.9387V76.2711C30.239 76.4578 30.2543 76.5895 30.285 76.6663C30.3157 76.7404 30.3771 76.7992 30.4692 76.8427V76.8466V76.9962H29.8746H29.2799C29.2313 76.8274 29.1994 76.6624 29.184 76.5013L29.1802 76.4936C28.8349 76.9028 28.3874 77.1074 27.8375 77.1074ZM29.161 75.4578V74.9783C29.0331 75.0499 28.8644 75.1075 28.6546 75.151L28.248 75.2277C28.0562 75.2635 27.9104 75.33 27.8107 75.4272C27.7109 75.5218 27.6611 75.642 27.6611 75.7878C27.6611 75.954 27.7058 76.0844 27.7953 76.1791C27.8848 76.2737 28.0102 76.321 28.1713 76.321C28.5242 76.321 28.8055 76.197 29.0152 75.9489C29.0562 75.9003 29.0907 75.8287 29.1188 75.7341C29.147 75.6394 29.161 75.5474 29.161 75.4578ZM33.1276 77.023C32.9435 77.0384 32.7172 77.046 32.4486 77.046C32.0599 77.046 31.7799 76.977 31.6085 76.8389C31.4397 76.6982 31.3553 76.4693 31.3553 76.1522V73.5973H30.7761V72.8262H31.3553V71.7022H32.4563V72.8262H33.1276V73.5973H32.4563V75.9681C32.4563 76.0652 32.4844 76.1292 32.5407 76.1599C32.5995 76.1906 32.7197 76.2059 32.9013 76.2059H33.1276V77.023ZM34.3882 77V72.8262H34.9368H35.4892V77H34.9406H34.3882ZM34.3767 71.3186H35.4969V72.339H34.3767V71.3186ZM38.4239 77.1074C37.7717 77.1074 37.2526 76.9118 36.8664 76.5205C36.4828 76.1292 36.291 75.6011 36.291 74.9361C36.291 74.2558 36.4828 73.7162 36.8664 73.3173C37.2526 72.9157 37.7717 72.715 38.4239 72.715C39.0812 72.715 39.6016 72.9157 39.9852 73.3173C40.3688 73.7162 40.5606 74.2558 40.5606 74.9361C40.5606 75.6011 40.3688 76.1292 39.9852 76.5205C39.6016 76.9118 39.0812 77.1074 38.4239 77.1074ZM38.4239 76.1867C38.7512 76.1867 39.0006 76.0793 39.1719 75.8645C39.3433 75.6497 39.429 75.3364 39.429 74.9246C39.429 74.5026 39.3433 74.183 39.1719 73.9656C39.0006 73.7456 38.7512 73.6357 38.4239 73.6357C38.0965 73.6357 37.8472 73.7456 37.6758 73.9656C37.507 74.183 37.4226 74.5026 37.4226 74.9246C37.4226 75.3364 37.507 75.6497 37.6758 75.8645C37.8472 76.0793 38.0965 76.1867 38.4239 76.1867ZM41.3356 77V72.8262H41.8573H42.3828V73.4438C42.4263 73.3697 42.4736 73.2994 42.5248 73.2329C42.7959 72.8876 43.1897 72.715 43.7063 72.715C44.1462 72.715 44.4902 72.8454 44.7383 73.1063C44.9889 73.3671 45.1142 73.729 45.1142 74.1919V77H44.5656H44.0132V74.3914C44.0132 74.1331 43.957 73.9426 43.8444 73.8198C43.7345 73.6945 43.5644 73.6318 43.3342 73.6318C43.0452 73.6318 42.8227 73.7188 42.6667 73.8927C42.5133 74.0666 42.4365 74.3172 42.4365 74.6446V77H41.888H41.3356Z" fill="black"/>
  <path d="M43.557 60.1335C43.9417 60.1335 44.2668 60.2639 44.5323 60.5247C44.7989 60.7843 44.9322 61.1029 44.9322 61.4806C44.9322 61.8572 44.7995 62.1758 44.534 62.4366C44.2686 62.6962 43.9429 62.826 43.557 62.826C43.1723 62.826 42.8472 62.6962 42.5818 62.4366C42.3163 62.1758 42.1836 61.8572 42.1836 61.4806C42.1836 61.1029 42.3163 60.7843 42.5818 60.5247C42.8484 60.2639 43.1735 60.1335 43.557 60.1335ZM44.6568 61.4806C44.6568 61.1673 44.5504 60.9024 44.3376 60.6861C44.1259 60.4697 43.8657 60.3616 43.557 60.3616C43.2495 60.3616 42.9893 60.4697 42.7765 60.6861C42.5648 60.9024 42.459 61.1673 42.459 61.4806C42.459 61.794 42.5648 62.0589 42.7765 62.2752C42.9893 62.4904 43.2495 62.598 43.557 62.598C43.8646 62.598 44.1247 62.4904 44.3376 62.2752C44.5504 62.0589 44.6568 61.794 44.6568 61.4806ZM42.9624 62.2577V60.7019H43.5851C43.7535 60.7019 43.885 60.7393 43.9797 60.8141C44.0756 60.8878 44.1236 60.9907 44.1236 61.1228C44.1236 61.2667 44.0756 61.3795 43.9797 61.4614C43.9084 61.5222 43.8166 61.5602 43.7043 61.5754L44.1516 62.2577H43.8692L43.4676 61.5841L43.208 61.5859V62.2577H42.9624ZM43.208 61.3789H43.5395C43.6541 61.3789 43.7377 61.3585 43.7903 61.3175C43.8441 61.2766 43.871 61.2123 43.871 61.1246C43.871 61.0474 43.8441 60.9907 43.7903 60.9544C43.7377 60.9182 43.6541 60.9001 43.5395 60.9001H43.208V61.3789Z" fill="black"/>
</svg>
