<svg width="44" height="32" viewBox="0 0 44 32" fill="none" xmlns="http://www.w3.org/2000/svg">
  <g clip-path="url(#clip0_842_6784)">
    <path d="M2.29059 8.98828V1.0824H4.36871L6.55976 5.09181L8.72824 1.0824H10.7612V8.98828H8.72824V4.45934L7.09059 7.46358H5.96118L4.32353 4.45934V8.98828H2.29059ZM12.3384 8.98828V1.0824H18.0984V2.64099H14.3713V4.18828H17.7596V5.65652H14.3713V7.42969H18.0984V8.98828H12.3384ZM21.5321 9.1351C20.9523 9.1351 20.4629 9.02593 20.0638 8.80758C19.6648 8.58169 19.3598 8.25793 19.149 7.83628C18.9382 7.4071 18.829 6.88758 18.8215 6.27769H20.7528C20.7603 6.66169 20.8205 6.95158 20.9335 7.14734C21.0464 7.3431 21.2459 7.44099 21.5321 7.44099C21.7052 7.44099 21.8483 7.39958 21.9612 7.31675C22.0817 7.23393 22.1721 7.0984 22.2323 6.91016C22.2925 6.72193 22.3226 6.47346 22.3226 6.16475V1.0824H24.3556V6.16475C24.3556 6.88005 24.2351 7.45605 23.9942 7.89275C23.7608 8.32946 23.4332 8.64569 23.0116 8.84146C22.5899 9.03722 22.0968 9.1351 21.5321 9.1351ZM29.4866 9.06734C28.7412 9.06734 28.0561 8.89416 27.4311 8.54781C26.8137 8.20146 26.3205 7.71958 25.9516 7.10216C25.5902 6.47722 25.4095 5.77699 25.4095 5.00146C25.4095 4.22593 25.5902 3.52946 25.9516 2.91205C26.3205 2.29463 26.8137 1.81275 27.4311 1.4664C28.0561 1.12005 28.7412 0.946869 29.4866 0.946869C30.2321 0.946869 30.9135 1.12005 31.5309 1.4664C32.1558 1.81275 32.6452 2.29463 32.9991 2.91205C33.3605 3.52946 33.5412 4.22593 33.5412 5.00146C33.5412 5.77699 33.3605 6.47722 32.9991 7.10216C32.6377 7.71958 32.1483 8.20146 31.5309 8.54781C30.9135 8.89416 30.2321 9.06734 29.4866 9.06734ZM29.4866 7.30546C30.1191 7.30546 30.6236 7.09463 31.0001 6.67299C31.3841 6.25134 31.5761 5.69416 31.5761 5.00146C31.5761 4.30122 31.3841 3.74405 31.0001 3.32993C30.6236 2.90828 30.1191 2.69746 29.4866 2.69746C28.8466 2.69746 28.3346 2.90452 27.9506 3.31863C27.5742 3.73275 27.3859 4.29369 27.3859 5.00146C27.3859 5.70169 27.5742 6.26263 27.9506 6.68428C28.3346 7.0984 28.8466 7.30546 29.4866 7.30546ZM34.706 8.98828V1.0824H38.1507C38.8133 1.0824 39.363 1.19157 39.7997 1.40993C40.2439 1.62828 40.579 1.93322 40.8049 2.32475C41.0307 2.71628 41.1437 3.1831 41.1437 3.72522C41.1437 4.28993 41.0081 4.77557 40.7371 5.18216C40.4736 5.58122 40.0745 5.87487 39.5399 6.0631L41.3696 8.98828H39.1107L37.5747 6.27769H36.739V8.98828H34.706ZM36.739 4.69652H37.699C38.2411 4.69652 38.61 4.61746 38.8058 4.45934C39.0091 4.29369 39.1107 4.04899 39.1107 3.72522C39.1107 3.40146 39.0091 3.16052 38.8058 3.0024C38.61 2.83675 38.2411 2.75393 37.699 2.75393H36.739V4.69652Z" fill="black"/>
    <path d="M2.23788 19.8711V12.4923H5.24212C5.93081 12.4923 6.49652 12.5942 6.93925 12.798C7.38198 12.9947 7.70875 13.2829 7.91958 13.6623C8.13743 14.0348 8.24635 14.4846 8.24635 15.0116C8.24635 15.5316 8.13743 15.9814 7.91958 16.3609C7.70875 16.7404 7.38198 17.032 6.93925 17.2358C6.49652 17.4326 5.93081 17.531 5.24212 17.531H4.13529V19.8711H2.23788ZM4.13529 15.9709H5.03129C5.51619 15.9709 5.85702 15.89 6.05379 15.7284C6.25056 15.5668 6.34894 15.3278 6.34894 15.0116C6.34894 14.6954 6.25056 14.4564 6.05379 14.2948C5.85702 14.1332 5.51619 14.0524 5.03129 14.0524H4.13529V15.9709ZM9.29965 19.8711V12.4923H12.5147C13.1331 12.4923 13.6461 12.5942 14.0537 12.798C14.4683 13.0018 14.7811 13.2864 14.9919 13.6518C15.2027 14.0172 15.3081 14.4529 15.3081 14.9589C15.3081 15.486 15.1816 15.9392 14.9286 16.3187C14.6827 16.6912 14.3102 16.9652 13.8113 17.1409L15.5189 19.8711H13.4107L11.9771 17.3412H11.1971V19.8711H9.29965ZM11.1971 15.8654H12.0931C12.599 15.8654 12.9434 15.7917 13.1261 15.6441C13.3158 15.4895 13.4107 15.2611 13.4107 14.9589C13.4107 14.6567 13.3158 14.4318 13.1261 14.2843C12.9434 14.1297 12.599 14.0524 12.0931 14.0524H11.1971V15.8654ZM16.6291 19.8711V12.4923H22.0051V13.947H18.5265V15.3911H21.6888V16.7614H18.5265V18.4164H22.0051V19.8711H16.6291ZM22.817 16.1606C22.817 15.4297 22.9751 14.7797 23.2913 14.2105C23.6076 13.6342 24.0468 13.188 24.609 12.8718C25.1782 12.5485 25.8212 12.3869 26.538 12.3869C27.4164 12.3869 28.1684 12.6188 28.7938 13.0826C29.4193 13.5464 29.8374 14.1789 30.0482 14.98H28.0665C27.9189 14.6708 27.7081 14.4354 27.434 14.2737C27.167 14.1121 26.8613 14.0313 26.5169 14.0313C25.9618 14.0313 25.512 14.2245 25.1677 14.611C24.8233 14.9976 24.6511 15.5141 24.6511 16.1606C24.6511 16.8071 24.8233 17.3236 25.1677 17.7102C25.512 18.0967 25.9618 18.2899 26.5169 18.2899C26.8613 18.2899 27.167 18.2091 27.434 18.0475C27.7081 17.8858 27.9189 17.6504 28.0665 17.3412H30.0482C29.8374 18.1423 29.4193 18.7748 28.7938 19.2386C28.1684 19.6954 27.4164 19.9238 26.538 19.9238C25.8212 19.9238 25.1782 19.7657 24.609 19.4494C24.0468 19.1262 23.6076 18.6799 23.2913 18.1107C22.9751 17.5415 22.817 16.8915 22.817 16.1606ZM31.3418 19.8711V12.4923H33.2392V19.8711H31.3418Z" fill="black"/>
    <circle cx="38.2647" cy="15.8712" r="3.76471" fill="#659C39"/>
    <path fill-rule="evenodd" clip-rule="evenodd" d="M40.6923 14.4976C40.8687 14.674 40.8687 14.96 40.6923 15.1364L38.244 17.5848C38.0008 17.828 37.6037 17.8185 37.3724 17.564L35.9727 16.0244C35.8049 15.8398 35.8185 15.5541 36.0031 15.3862C36.1877 15.2184 36.4734 15.232 36.6413 15.4166L37.8284 16.7225L40.0534 14.4976C40.2299 14.3211 40.5159 14.3211 40.6923 14.4976Z" fill="white"/>
    <rect width="42.9176" height="9.50588" transform="translate(0.541138 22.2705)" fill="#FBA513"/>
    <path d="M4.31169 29.102C3.93752 29.102 3.60264 29.0328 3.30705 28.8943C3.01145 28.7522 2.7776 28.5333 2.60548 28.2377C2.4371 27.9383 2.35291 27.5548 2.35291 27.0871V26.9749C2.35291 26.6306 2.40155 26.335 2.49884 26.0881C2.59986 25.8411 2.73831 25.6391 2.91417 25.4819C3.09377 25.321 3.29956 25.2032 3.53155 25.1283C3.76727 25.0535 4.01984 25.0161 4.28924 25.0161C4.51 25.0161 4.72141 25.0441 4.92346 25.1003C5.12551 25.1526 5.30698 25.2368 5.46788 25.3528C5.63251 25.4651 5.76721 25.611 5.87198 25.7906C5.98049 25.9702 6.05158 26.1872 6.08526 26.4417H4.79998C4.77753 26.3406 4.73825 26.2602 4.68212 26.2003C4.62599 26.1405 4.56239 26.0993 4.49129 26.0768C4.42394 26.0507 4.35098 26.0376 4.2724 26.0376C4.14144 26.0376 4.02732 26.0675 3.93004 26.1274C3.83275 26.1872 3.75792 26.2845 3.70554 26.4192C3.65315 26.5539 3.62696 26.7391 3.62696 26.9749V27.0871C3.62696 27.263 3.6438 27.4145 3.67747 27.5417C3.71115 27.6652 3.75792 27.7681 3.81779 27.8504C3.8814 27.929 3.95623 27.987 4.04229 28.0244C4.13209 28.0618 4.23125 28.0805 4.33975 28.0805C4.45575 28.0805 4.55864 28.0637 4.64845 28.03C4.73825 27.9963 4.81308 27.944 4.87295 27.8729C4.93656 27.8018 4.97584 27.7157 4.99081 27.6147H4.42394V26.8963H6.16945V27.1994C6.16945 27.5361 6.1208 27.8261 6.02352 28.0693C5.92624 28.3088 5.79153 28.5052 5.61942 28.6586C5.4473 28.812 5.24899 28.9243 5.02449 28.9954C4.80373 29.0665 4.56613 29.102 4.31169 29.102ZM5.9267 29.0234L7.33545 25.0947H8.58705L9.9958 29.0234H8.66563L8.46358 28.3836H7.29055L7.0885 29.0234H5.9267ZM7.57679 27.4575H8.17172L7.87987 26.3855L7.57679 27.4575ZM10.0593 29.0234V25.0947H11.7991C12.1733 25.0947 12.4801 25.1489 12.7196 25.2574C12.9591 25.3659 13.1368 25.5212 13.2528 25.7233C13.3688 25.9253 13.4268 26.1723 13.4268 26.4641C13.4268 26.726 13.3669 26.9561 13.2472 27.1545C13.1274 27.349 12.946 27.4987 12.7028 27.6035L13.539 29.0234H12.1864L11.5297 27.7718H11.3052V29.0234H10.0593ZM11.3052 26.8738H11.6252C11.8272 26.8738 11.9675 26.8383 12.0461 26.7672C12.1247 26.6924 12.164 26.5913 12.164 26.4641C12.164 26.3332 12.1247 26.2321 12.0461 26.161C11.9675 26.0862 11.8272 26.0488 11.6252 26.0488H11.3052V26.8738ZM13.4773 29.0234L14.8861 25.0947H16.1377L17.5464 29.0234H16.2163L16.0142 28.3836H14.8412L14.6391 29.0234H13.4773ZM15.1274 27.4575H15.7224L15.4305 26.3855L15.1274 27.4575ZM17.6099 29.0234V25.0947H18.6594L20.0401 27.0029V25.0947H21.258V29.0234H20.1804L18.7997 27.1152V29.0234H17.6099ZM22.5139 29.0234V26.1049H21.397V25.0947H24.8768V26.1049H23.7599V29.0234H22.5139ZM25.0573 29.0234V25.0947H26.3089V29.0234H25.0573ZM26.5148 29.0234V28.1535L28.2266 26.1049H26.5541V25.0947H29.77V25.9646L28.0582 28.0132H29.8262V29.0234H26.5148ZM29.7724 29.0234L31.1811 25.0947H32.4327L33.8415 29.0234H32.5113L32.3092 28.3836H31.1362L30.9342 29.0234H29.7724ZM31.4225 27.4575H32.0174L31.7255 26.3855L31.4225 27.4575ZM35.4764 25.0666C35.8918 25.0666 36.2547 25.1508 36.5653 25.3192C36.8796 25.4838 37.1209 25.7158 37.2893 26.0151C37.4577 26.3144 37.5418 26.6568 37.5418 27.0422C37.5418 27.4239 37.4558 27.7644 37.2837 28.0637C37.1153 28.363 36.874 28.5988 36.5597 28.7709C36.2491 28.9392 35.888 29.0234 35.4764 29.0234H33.9105V25.0666H35.4764ZM35.3922 28.0525C35.714 28.0525 35.9666 27.9645 36.1499 27.7887C36.3333 27.6128 36.425 27.364 36.425 27.0422C36.425 26.7167 36.3333 26.466 36.1499 26.2901C35.9666 26.1105 35.714 26.0207 35.3922 26.0207H35.0106V28.0525H35.3922ZM39.6541 29.0627C39.2837 29.0627 38.9432 28.9767 38.6327 28.8045C38.3221 28.6287 38.0751 28.3873 37.8918 28.0805C37.7122 27.77 37.6224 27.4201 37.6224 27.031C37.6224 26.6418 37.7122 26.2939 37.8918 25.987C38.0751 25.6765 38.3221 25.4351 38.6327 25.263C38.9432 25.0909 39.2837 25.0049 39.6541 25.0049C40.0283 25.0049 40.3688 25.0909 40.6756 25.263C40.9862 25.4351 41.2313 25.6765 41.4109 25.987C41.5905 26.2939 41.6803 26.6418 41.6803 27.031C41.6803 27.4201 41.5905 27.77 41.4109 28.0805C41.2313 28.3873 40.9862 28.6287 40.6756 28.8045C40.3651 28.9767 40.0246 29.0627 39.6541 29.0627ZM39.6541 28.0412C39.9348 28.0412 40.1555 27.9496 40.3164 27.7662C40.4811 27.5829 40.5634 27.3378 40.5634 27.031C40.5634 26.7167 40.4811 26.4697 40.3164 26.2901C40.1555 26.1068 39.9348 26.0151 39.6541 26.0151C39.3698 26.0151 39.1471 26.1068 38.9862 26.2901C38.8254 26.4697 38.7449 26.7167 38.7449 27.031C38.7449 27.3415 38.8254 27.5885 38.9862 27.7718C39.1471 27.9514 39.3698 28.0412 39.6541 28.0412Z" fill="white"/>
  </g>
  <defs>
    <clipPath id="clip0_842_6784">
      <rect width="42.9176" height="32" fill="white" transform="translate(0.541138)"/>
    </clipPath>
  </defs>
</svg>
