<?xml version="1.0" encoding="UTF-8"?>
<svg version="1.1" xmlns="http://www.w3.org/2000/svg" width="1845" height="520">
<path d="M0 0 C4.20779352 3.20202824 7.82891043 6.94395835 11.40234375 10.828125 C11.79164062 10.32023437 12.1809375 9.81234375 12.58203125 9.2890625 C20.21930227 -0.10794838 30.42218585 -5.50878183 42.40234375 -7.171875 C58.01111655 -8.15450961 70.52422146 -5.16999019 82.52734375 4.953125 C94.89822517 16.57599964 100.76806476 32.62476703 101.51579857 49.36870956 C101.69798708 56.73434171 101.65727301 64.10149702 101.6328125 71.46875 C101.63161874 73.84674047 101.63116795 76.22473141 101.63142395 78.60272217 C101.62986782 83.55825804 101.62163924 88.51372078 101.6081543 93.46923828 C101.59105397 99.83496153 101.58734358 106.20060549 101.58809948 112.56634903 C101.58782847 117.46289838 101.58236019 122.35943026 101.57509804 127.25597382 C101.57190892 129.60524107 101.5699434 131.9545103 101.56920433 134.3037796 C101.56704964 137.5687656 101.55832773 140.83366521 101.54760742 144.09863281 C101.54806061 145.07514297 101.54851379 146.05165314 101.54898071 147.05775452 C101.54471573 147.94065659 101.54045074 148.82355865 101.53605652 149.73321533 C101.53438067 150.50446369 101.53270483 151.27571205 101.5309782 152.07033157 C101.40234375 153.828125 101.40234375 153.828125 100.40234375 154.828125 C98.99009329 154.9209976 97.57325441 154.94559272 96.15795898 154.94165039 C95.25710068 154.94157486 94.35624237 154.94149933 93.42808533 154.94142151 C92.44892654 154.93626022 91.46976776 154.93109894 90.4609375 154.92578125 C89.46353043 154.9243663 88.46612335 154.92295135 87.43849182 154.92149353 C84.23891251 154.91587614 81.03940206 154.90332071 77.83984375 154.890625 C75.6764333 154.88561224 73.51302176 154.88104895 71.34960938 154.87695312 C66.0338305 154.86590107 60.71809204 154.84914604 55.40234375 154.828125 C55.39647751 153.5134726 55.39061127 152.19882019 55.38456726 150.84432983 C55.32735483 138.45508381 55.25460067 126.06601356 55.16662884 113.67694664 C55.12190111 107.30759318 55.08265004 100.93830404 55.0559082 94.56884766 C55.02989956 88.42199212 54.98951386 82.27538379 54.93915749 76.12868118 C54.92247237 73.78357645 54.91096836 71.43842895 54.90472984 69.09327316 C54.89510695 65.8085005 54.8670681 62.52436264 54.8347168 59.23974609 C54.83615189 58.27013947 54.83758698 57.30053284 54.83906555 56.30154419 C54.76614605 51.06645092 54.3572872 47.34034345 51.40234375 42.828125 C46.77495496 38.65218877 43.90536961 37.45035847 37.78515625 37.55859375 C33.95341142 37.99202062 31.22970999 39.19904159 28.40234375 41.828125 C23.31916977 49.08980212 23.25150758 57.03770342 23.19702148 65.59716797 C23.18712189 66.56364761 23.17722229 67.53012726 23.16702271 68.52589417 C23.13553916 71.70734237 23.11070239 74.88880549 23.0859375 78.0703125 C23.06535662 80.28134541 23.04435985 82.49237448 23.02296448 84.70339966 C22.96786097 90.51315194 22.91840011 96.32293903 22.87011719 102.13275146 C22.81981645 108.06509487 22.76417518 113.99738793 22.70898438 119.9296875 C22.60154621 131.56245695 22.50006955 143.19527019 22.40234375 154.828125 C16.01197144 154.85339562 9.62161192 154.87095817 3.23120117 154.88305664 C1.05541502 154.88809808 -1.12036772 154.89493107 -3.29614258 154.90356445 C-6.41618692 154.91563838 -9.53618663 154.92135505 -12.65625 154.92578125 C-13.63540878 154.93094254 -14.61456757 154.93610382 -15.62339783 154.94142151 C-16.52425613 154.94149704 -17.42511444 154.94157257 -18.35327148 154.94165039 C-19.15047104 154.943871 -19.94767059 154.94609161 -20.76902771 154.94837952 C-22.59765625 154.828125 -22.59765625 154.828125 -23.59765625 153.828125 C-23.69860678 152.46306264 -23.73116087 151.09285791 -23.73568726 149.72407532 C-23.74114059 148.83947128 -23.74659393 147.95486725 -23.75221252 147.04345703 C-23.75325485 146.06530029 -23.75429718 145.08714355 -23.75537109 144.0793457 C-23.76045181 143.05495895 -23.76553253 142.0305722 -23.77076721 140.97514343 C-23.78149823 138.74177733 -23.79010761 136.50840029 -23.79688644 134.27501869 C-23.80863828 130.74051348 -23.82808263 127.20613252 -23.8500061 123.67167664 C-23.91173898 113.61913183 -23.96564832 103.56659801 -23.99902344 93.51391602 C-24.01996626 87.37240793 -24.05527165 81.23112318 -24.09978104 75.08974266 C-24.11394975 72.74742449 -24.12266543 70.40506678 -24.12583542 68.0627079 C-24.13074262 64.78286004 -24.15389814 61.50360453 -24.18115234 58.22387695 C-24.17814621 57.25584137 -24.17514008 56.28780579 -24.17204285 55.29043579 C-24.23655948 50.06359274 -24.62535794 46.32291589 -27.59765625 41.828125 C-31.42578866 38.68054946 -34.59701275 36.828125 -39.59765625 36.828125 C-45.18582664 38.48604641 -49.59189834 40.65822139 -52.59765625 45.828125 C-54.64465767 51.58785087 -54.88583924 56.78270695 -54.86889648 62.86254883 C-54.8767366 64.33692917 -54.8767366 64.33692917 -54.88473511 65.84109497 C-54.89493931 67.96467819 -54.90074924 70.08828617 -54.9026165 72.21189308 C-54.90628746 75.56941503 -54.92303089 78.92664358 -54.94337463 82.28410339 C-54.99874137 91.82598438 -55.02957395 101.36790685 -55.05395508 110.90991211 C-55.06978476 116.75356784 -55.09994472 122.59701134 -55.13871956 128.44055748 C-55.15039955 130.66896001 -55.15630017 132.89740038 -55.15640068 135.12583351 C-55.15659166 138.23100781 -55.17477606 141.33559088 -55.19702148 144.44067383 C-55.19244431 145.36691055 -55.18786713 146.29314728 -55.18315125 147.24745178 C-55.19279907 148.08991455 -55.2024469 148.93237732 -55.21238708 149.80036926 C-55.21540408 150.90117939 -55.21540408 150.90117939 -55.21848202 152.0242281 C-55.59765625 153.828125 -55.59765625 153.828125 -58.59765625 155.828125 C-60.5014801 156.08209229 -60.5014801 156.08209229 -62.67016602 156.08691406 C-63.8914193 156.09637054 -63.8914193 156.09637054 -65.13734436 156.10601807 C-66.01241135 156.1019696 -66.88747833 156.09792114 -67.7890625 156.09375 C-68.69011215 156.09566345 -69.5911618 156.0975769 -70.51951599 156.09954834 C-72.42341389 156.10090897 -74.32732111 156.09722106 -76.23120117 156.08886719 C-79.15239174 156.07815348 -82.07296906 156.088773 -84.99414062 156.1015625 C-86.84244928 156.10024113 -88.69075755 156.0976792 -90.5390625 156.09375 C-91.41615372 156.09779846 -92.29324493 156.10184692 -93.19691467 156.10601807 C-99.36773114 156.05805011 -99.36773114 156.05805011 -101.59765625 153.828125 C-101.84654522 151.10166073 -101.84654522 151.10166073 -101.84489441 147.55809021 C-101.84730882 146.9078021 -101.84972324 146.25751399 -101.85221082 145.58752018 C-101.85786697 143.39865944 -101.84917053 141.21008807 -101.84057617 139.02124023 C-101.84164857 137.4560844 -101.84358662 135.89092895 -101.84632874 134.32577515 C-101.85118657 130.06765876 -101.84351004 125.80964676 -101.83337569 121.551543 C-101.8246118 117.10370417 -101.8263523 112.65586877 -101.82673645 108.20802307 C-101.82579914 100.73868048 -101.81710566 93.26937845 -101.8034668 85.80004883 C-101.78773483 77.15221779 -101.78246885 68.50443119 -101.78320235 59.85658687 C-101.78381174 51.55173971 -101.77871485 43.24690709 -101.77041054 34.94206429 C-101.76687103 31.40100046 -101.76504634 27.85994178 -101.76451683 24.31887627 C-101.76351561 20.15339265 -101.75743722 15.98794665 -101.74735069 11.82247543 C-101.74441875 10.28935412 -101.74320172 8.75622848 -101.74377823 7.22310448 C-101.74426553 5.13908779 -101.73864699 3.05517801 -101.73136902 0.97117615 C-101.72969317 -0.1978251 -101.72801733 -1.36682634 -101.7262907 -2.57125187 C-101.59765625 -5.171875 -101.59765625 -5.171875 -100.59765625 -6.171875 C-99.22155743 -6.26982811 -97.84051743 -6.29985588 -96.4609375 -6.30126953 C-95.58332764 -6.30442169 -94.70571777 -6.30757385 -93.80151367 -6.31082153 C-92.84736572 -6.3087973 -91.89321777 -6.30677307 -90.91015625 -6.3046875 C-89.93731689 -6.30564423 -88.96447754 -6.30660095 -87.9621582 -6.30758667 C-85.90087825 -6.30826858 -83.83959617 -6.30641353 -81.77832031 -6.30224609 C-78.61127937 -6.296898 -75.44438025 -6.30219072 -72.27734375 -6.30859375 C-70.2799476 -6.30793297 -68.28255154 -6.30665181 -66.28515625 -6.3046875 C-65.3310083 -6.30671173 -64.37686035 -6.30873596 -63.39379883 -6.31082153 C-62.07738403 -6.30609329 -62.07738403 -6.30609329 -60.734375 -6.30126953 C-59.95795654 -6.30047394 -59.18153809 -6.29967834 -58.3815918 -6.29885864 C-56.59765625 -6.171875 -56.59765625 -6.171875 -55.59765625 -5.171875 C-55.23004894 -2.84369536 -54.89524044 -0.5100365 -54.59765625 1.828125 C-54.015 1.42980469 -53.43234375 1.03148437 -52.83203125 0.62109375 C-36.76254214 -9.76343459 -16.30531576 -10.46500007 0 0 Z " fill="#161815" transform="translate(1278.59765625,184.171875)"/>
<path d="M0 0 C13.86 0 27.72 0 42 0 C42 68.31 42 136.62 42 207 C28.14 207 14.28 207 0 207 C-0.33 200.73 -0.66 194.46 -1 188 C-1.886875 188.99 -2.77375 189.98 -3.6875 191 C-16.31010413 203.54625774 -32.39701722 208.29869258 -49.75854492 208.31469727 C-69.42690525 207.98113451 -85.95313668 199.27700631 -99.625 185.3203125 C-114.51987064 168.56358303 -121.74437601 146.18779753 -121.18359375 123.85546875 C-119.60954267 99.37395094 -111.40381208 77.75321825 -93 61 C-76.4798509 47.17034702 -58.03457128 43.27663777 -37 45 C-22.01155955 47.11920545 -12.08019193 54.92709825 -1 65 C-0.67 43.55 -0.34 22.1 0 0 Z M-70 101 C-76.69040782 109.44626146 -79.51095151 119.89501823 -79 130.625 C-77.45863525 141.5590562 -72.52836748 150.94371878 -64 158 C-53.84454359 164.53080257 -43.47184532 167.68833497 -31.4140625 165.5390625 C-20.8427981 162.70449634 -12.30102564 156.97546097 -6 148 C-0.70424629 138.39650633 1.74518229 128.82838911 -0.68359375 117.93359375 C-4.02595586 107.07438407 -9.49380669 98.42263435 -19.38671875 92.59375 C-37.30926405 83.15216411 -56.06184652 86.00325259 -70 101 Z " fill="#B3B3B3" transform="translate(761,132)"/>
<path d="M0 0 C0.06058594 -0.99902344 0.12117188 -1.99804688 0.18359375 -3.02734375 C0.30927734 -4.96287109 0.30927734 -4.96287109 0.4375 -6.9375 C0.55931641 -8.86916016 0.55931641 -8.86916016 0.68359375 -10.83984375 C1 -14 1 -14 2 -15 C3.37609882 -15.09795311 4.75713882 -15.12798088 6.13671875 -15.12939453 C7.01432861 -15.13254669 7.89193848 -15.13569885 8.79614258 -15.13894653 C9.75029053 -15.1369223 10.70443848 -15.13489807 11.6875 -15.1328125 C12.66033936 -15.13376923 13.63317871 -15.13472595 14.63549805 -15.13571167 C16.696778 -15.13639358 18.75806008 -15.13453853 20.81933594 -15.13037109 C23.98637688 -15.125023 27.153276 -15.13031572 30.3203125 -15.13671875 C32.31770865 -15.13605797 34.31510471 -15.13477681 36.3125 -15.1328125 C37.26664795 -15.13483673 38.2207959 -15.13686096 39.20385742 -15.13894653 C40.08146729 -15.13579437 40.95907715 -15.13264221 41.86328125 -15.12939453 C42.63969971 -15.12859894 43.41611816 -15.12780334 44.21606445 -15.12698364 C46 -15 46 -15 47 -14 C47.09681822 -11.93705722 47.12186923 -9.87073958 47.12025452 -7.80552673 C47.12153615 -6.82419253 47.12153615 -6.82419253 47.12284368 -5.82303339 C47.12450028 -3.61498657 47.11897421 -1.40701452 47.11352539 0.80102539 C47.11324353 2.37750751 47.11340123 3.95398976 47.1139679 5.5304718 C47.11425592 9.82367549 47.1083584 14.11685149 47.10139394 18.41004872 C47.09516121 22.89172683 47.09455667 27.37340551 47.09336853 31.85508728 C47.09025497 40.34780909 47.08204126 48.84051809 47.07201904 57.33323425 C47.06085866 66.99933539 47.05534764 76.66543712 47.05032361 86.33154309 C47.03985866 106.22103588 47.02225875 126.11051714 47 146 C44.73015442 147.13492279 43.469449 147.13220504 40.94921875 147.14526367 C40.11495361 147.15164352 39.28068848 147.15802338 38.42114258 147.16459656 C37.51904053 147.16570938 36.61693848 147.1668222 35.6875 147.16796875 C34.76283936 147.17129715 33.83817871 147.17462555 32.88549805 147.17805481 C30.92855325 147.18312221 28.97159979 147.18546319 27.01464844 147.18530273 C24.01222606 147.18749109 21.01016991 147.20565386 18.0078125 147.22460938 C16.10937626 147.22754289 14.21093827 147.22952797 12.3125 147.23046875 C11.41039795 147.23765427 10.5082959 147.24483978 9.57885742 147.25224304 C8.74459229 147.24916641 7.91032715 147.24608978 7.05078125 147.24291992 C6.31512939 147.24434494 5.57947754 147.24576996 4.8215332 147.24723816 C3 147 3 147 1 145 C0.69940057 142.63490639 0.50484988 140.25558119 0.375 137.875 C0.26285156 135.95300781 0.26285156 135.95300781 0.1484375 133.9921875 C0.09945313 133.00476563 0.05046875 132.01734375 0 131 C-0.86625 131.845625 -1.7325 132.69125 -2.625 133.5625 C-17.37849776 146.1402294 -35.38804566 148.25151328 -54 147 C-67.61733464 145.32610837 -79.96502557 138.07175699 -90 129 C-90.70769531 128.37351562 -91.41539062 127.74703125 -92.14453125 127.1015625 C-107.58055293 112.63951542 -114.93918915 90.90341222 -116.23828125 70.203125 C-116.70646041 45.26642463 -109.37965771 22.62673141 -92.18359375 4.08984375 C-66.3010727 -20.68144205 -27.62274441 -22.91062919 0 0 Z M-62.77734375 43.1015625 C-69.14682689 51.91605506 -71.02345087 61.2537659 -70 72 C-68.12918673 82.78835655 -61.82068401 90.73350686 -53 97 C-44.35944812 102.26825016 -33.81360028 102.3865952 -24.1015625 100.41015625 C-14.61010803 97.16150385 -6.86981918 89.42481071 -2.125 80.73046875 C1.4510946 72.05098916 1.87868309 62.92120184 -1 54 C-5.6732827 43.28192771 -12.73836857 36.32708234 -23.58984375 31.95703125 C-38.04666783 27.21234168 -52.89688513 31.41873451 -62.77734375 43.1015625 Z " fill="#161815" transform="translate(1107,193)"/>
<path d="M0 0 C8.37037037 6.37037037 8.37037037 6.37037037 12 10 C12.33 3.4 12.66 -3.2 13 -10 C26.86 -10 40.72 -10 55 -10 C55 43.46 55 96.92 55 152 C41.14 152 27.28 152 13 152 C12.67 145.4 12.34 138.8 12 132 C8.72661361 135.26771504 8.72661361 135.26771504 5.47265625 138.5546875 C-7.09148432 150.31834266 -23.98280155 153.80010835 -40.640625 153.27734375 C-55.85350901 152.48101337 -69.70274995 146.14488939 -81 136 C-81.82113281 135.27167969 -82.64226562 134.54335938 -83.48828125 133.79296875 C-90.0666825 127.61386348 -94.69166535 120.90343269 -99 113 C-99.48339844 112.12859375 -99.96679688 111.2571875 -100.46484375 110.359375 C-110.90663546 89.66621939 -110.93289284 63.38544814 -103.93359375 41.6953125 C-96.7733552 21.60883472 -83.82857775 4.99888593 -64.4375 -4.375 C-62.3036204 -5.27876077 -60.15827783 -6.15616205 -58 -7 C-57.17757812 -7.3403125 -56.35515625 -7.680625 -55.5078125 -8.03125 C-37.50500288 -14.24308207 -15.5532918 -10.3688612 0 0 Z M-56.109375 44.140625 C-64.75056017 54.70207354 -67.02658285 65.5387516 -66 79 C-63.39525175 90.59485077 -57.39508473 98.7117841 -47.68359375 105.33984375 C-38.63953373 110.93478626 -29.15422485 112.41045288 -18.7109375 110.3515625 C-7.59182322 107.30487311 1.2094015 100.98433083 7.18359375 91.02734375 C12.60648013 80.71790042 13.78018965 69.9831588 10.4375 58.75 C6.44071238 48.08251756 -1.64094002 39.56451034 -11.9765625 34.8125 C-27.46556005 28.59297975 -44.34179562 32.19871111 -56.109375 44.140625 Z " fill="#B3B3B3" transform="translate(114,187)"/>
<path d="M0 0 C6.66908482 5.40736607 6.66908482 5.40736607 8.91015625 7.6484375 C9.24015625 1.0484375 9.57015625 -5.5515625 9.91015625 -12.3515625 C23.77015625 -12.3515625 37.63015625 -12.3515625 51.91015625 -12.3515625 C51.91015625 41.1084375 51.91015625 94.5684375 51.91015625 149.6484375 C38.05015625 149.6484375 24.19015625 149.6484375 9.91015625 149.6484375 C9.58015625 143.3784375 9.25015625 137.1084375 8.91015625 130.6484375 C7.21890625 132.1540625 5.52765625 133.6596875 3.78515625 135.2109375 C-10.56896401 147.4132336 -27.26501827 151.9693045 -45.875 150.85986328 C-65.26869057 149.00856963 -81.6011809 138.07082879 -94.08984375 123.6484375 C-109.11648986 102.73723067 -114.16410728 77.72682584 -110.59375 52.3515625 C-106.61291712 32.46988867 -96.38536371 12.95158813 -80.01953125 0.5625 C-55.27599624 -15.6032762 -24.53975599 -18.67627447 0 0 Z M-59.19921875 41.7890625 C-67.82935052 52.33700132 -70.14103274 63.19897832 -69.08984375 76.6484375 C-67.57243952 82.98536916 -65.04777563 88.45365191 -61.08984375 93.6484375 C-60.49429688 94.4528125 -59.89875 95.2571875 -59.28515625 96.0859375 C-52.81728113 103.63562803 -43.20181158 107.79797797 -33.4765625 108.9609375 C-22.93688624 109.4490267 -13.03158778 106.39682522 -5.01953125 99.5 C3.77494258 91.06157774 8.84177625 81.87557743 9.28515625 69.4609375 C9.04783877 57.3019067 4.62258257 48.43679625 -3.81640625 39.90234375 C-12.20795623 32.21966899 -22.04118198 29.12708638 -33.30078125 29.40625 C-43.18559612 30.26459527 -52.22863142 34.71520721 -59.19921875 41.7890625 Z " fill="#B3B3B3" transform="translate(575.08984375,189.3515625)"/>
<path d="M0 0 C4.49756827 3.39966081 8.31252033 7.59950699 10.4375 12.875 C11.52916708 21.20945828 11.03266631 27.94119643 6.12109375 34.89453125 C1.43571698 40.40609974 -4.66372412 42.0727872 -11.25 44.53515625 C-27.50315794 51.10925197 -37.68389709 63.05409322 -44.49609375 78.94921875 C-51.49971033 98.16426936 -49.89992636 117.91149561 -41.375 136.25 C-37.94834107 142.6924123 -33.78544445 147.81146319 -28.5625 152.875 C-27.99917969 153.44734375 -27.43585938 154.0196875 -26.85546875 154.609375 C-14.53309064 166.24217963 3.09294849 169.22268191 19.38671875 169.09375 C34.26503438 168.51971323 46.74645673 163.83485837 58.4375 154.875 C59.26636719 154.26785156 60.09523438 153.66070312 60.94921875 153.03515625 C73.59950896 142.05303617 77.77957066 125.42119968 81.4375 109.875 C96.2875 109.875 111.1375 109.875 126.4375 109.875 C126.4375 138.86532732 113.60415683 164.59850034 94.1875 185.5625 C72.38560568 206.02114964 43.57812916 215.57289685 13.8894043 215.22607422 C-12.01929359 214.35667523 -36.85600823 207.22996082 -56.5625 189.875 C-57.79033203 188.86179687 -57.79033203 188.86179687 -59.04296875 187.828125 C-75.30642603 174.01048998 -86.13553768 154.36950406 -91.5625 133.875 C-92.03816406 132.12509766 -92.03816406 132.12509766 -92.5234375 130.33984375 C-99.57936284 99.5591786 -93.2578643 67.24192566 -76.73144531 40.66455078 C-73.7230707 36.05899816 -70.26917432 31.92779841 -66.5625 27.875 C-65.79292969 27.02421875 -65.02335937 26.1734375 -64.23046875 25.296875 C-53.76338664 14.27177397 -41.26209231 7.08517173 -27.5625 0.875 C-26.31339844 0.29878906 -26.31339844 0.29878906 -25.0390625 -0.2890625 C-17.4547449 -3.30587284 -7.21252133 -4.23462427 0 0 Z " fill="#161815" transform="translate(1642.5625,147.125)"/>
<path d="M0 0 C17.52214424 13.52678199 28.71397688 33.5702925 31.625 55.5 C33.58459031 78.28023739 27.7363918 99.90528867 13.5 117.875 C0.05345506 133.36028855 -19.21006042 145.27668623 -40.0625 146.9375 C-56.40001176 147.85689376 -71.14337993 146.1497818 -86.0625 138.9375 C-86.97515625 138.50695312 -87.8878125 138.07640625 -88.828125 137.6328125 C-108.24885086 127.81147399 -121.31137039 110.71230012 -128.0625 90.28125 C-134.50389062 68.7428501 -131.69621921 46.05497248 -122.0625 25.9375 C-110.46985834 5.51586332 -93.1677195 -7.77464838 -70.75 -14.4375 C-45.71118777 -20.68015509 -20.76655663 -14.61035063 0 0 Z M-79.375 39.125 C-87.43686559 48.76986348 -90.09877372 59.59103879 -89.0625 71.9375 C-86.75417309 83.08977821 -80.60055827 92.58493223 -71.0625 98.9375 C-60.17753692 104.72503801 -49.91552424 106.98562195 -37.875 103.3125 C-28.10336758 99.69384387 -19.80960388 92.67580784 -14.70703125 83.5 C-10.20532038 73.61898842 -9.17434101 62.40828015 -12.6875 52 C-17.03077891 41.76983783 -24.97424152 32.74301929 -35.375 28.5 C-51.39081279 22.74875 -67.58000461 26.75463898 -79.375 39.125 Z " fill="#B3B3B3" transform="translate(946.0625,193.0625)"/>
<path d="M0 0 C0.83272934 0.00222061 1.66545868 0.00444122 2.52342224 0.00672913 C3.46432205 0.00680466 4.40522186 0.00688019 5.37463379 0.00695801 C6.39754013 0.01211929 7.42044647 0.01728058 8.47434998 0.02259827 C9.51614914 0.02401321 10.5579483 0.02542816 11.63131714 0.02688599 C14.97355467 0.03250372 18.31572629 0.04505922 21.65794373 0.05775452 C23.91770839 0.06276723 26.17747409 0.06733053 28.4372406 0.07142639 C33.98999763 0.08247891 39.54271597 0.09923428 45.09544373 0.12025452 C55.09544373 30.12025452 65.09544373 60.12025452 75.09544373 90.12025452 C77.51433964 86.49191065 78.71262462 82.70999215 80.07981873 78.60853577 C80.51844994 77.31123032 80.51844994 77.31123032 80.96594238 75.98771667 C81.59869304 74.11542119 82.22956649 72.24249048 82.85877991 70.3690033 C84.53031961 65.39460744 86.21797809 60.42568128 87.90403748 55.45619202 C88.24927963 54.43760605 88.59452179 53.41902008 88.95022583 52.36956787 C92.25458519 42.62939091 95.60335162 32.90501498 98.98985291 23.19309998 C99.60049189 21.44028355 100.20946834 19.68688704 100.8167572 17.9329071 C101.66197627 15.49257164 102.51265812 13.05421229 103.36497498 10.61634827 C103.61328568 9.8964975 103.86159637 9.17664673 104.11743164 8.4349823 C105.20231546 5.35143518 106.2701766 2.85815521 108.09544373 0.12025452 C110.08229065 -0.24050903 110.08229065 -0.24050903 112.54515076 -0.22032166 C113.92635605 -0.21998177 113.92635605 -0.21998177 115.33546448 -0.21963501 C116.82927139 -0.19640923 116.82927139 -0.19640923 118.35325623 -0.17271423 C119.3714444 -0.16846939 120.38963257 -0.16422455 121.43867493 -0.15985107 C124.69953046 -0.14302128 127.95977413 -0.10536094 131.22044373 -0.06724548 C133.42746607 -0.05220422 135.63449807 -0.03851485 137.84153748 -0.02622986 C143.25971596 0.00689621 148.67753614 0.05713799 154.09544373 0.12025452 C155.17257378 4.07738319 154.98648344 6.39244668 153.59861755 10.23109436 C153.24188461 11.236548 152.88515167 12.24200165 152.51760864 13.27792358 C152.11661453 14.36800217 151.71562042 15.45808075 151.30247498 16.58119202 C150.88935562 17.73407211 150.47623627 18.88695221 150.05059814 20.07476807 C148.91808533 23.22735029 147.77467952 26.37556477 146.62621307 29.52234268 C145.41809356 32.84075422 144.22419914 36.16427795 143.02854919 39.48719788 C140.3071928 47.04134616 137.56447623 54.58764627 134.81839752 62.13283539 C133.6689917 65.29258243 132.52215362 68.45325834 131.37522888 71.61390686 C128.00307608 80.90541836 124.62889864 90.19617272 121.23997498 99.48158264 C117.30654487 110.26160492 113.39300879 121.04780445 109.54466248 131.85853577 C109.18924377 132.856819 108.83382507 133.85510223 108.46763611 134.88363647 C106.80624051 139.55395412 105.14944602 144.22585338 103.49827576 148.89979553 C102.9226152 150.5227692 102.346933 152.14573519 101.77122498 153.76869202 C101.51185654 154.50739029 101.2524881 155.24608856 100.98526001 156.00717163 C99.20843089 161.00726735 99.20843089 161.00726735 98.09544373 162.12025452 C96.62190025 162.2132947 95.14393782 162.23771717 93.66746521 162.23377991 C92.7265654 162.23370438 91.78566559 162.23362885 90.81625366 162.23355103 C89.79334732 162.22838974 88.77044098 162.22322845 87.71653748 162.21791077 C86.15383873 162.21578835 86.15383873 162.21578835 84.55957031 162.21362305 C81.21733279 162.20800531 77.87516116 162.19544982 74.53294373 162.18275452 C72.27317906 162.1777418 70.01341336 162.1731785 67.75364685 162.16908264 C62.20088982 162.15803013 56.64817148 162.14127476 51.09544373 162.12025452 C48.14029678 154.96829864 45.53360443 147.74171426 43.07591248 140.40541077 C42.70072479 139.29374542 42.32553711 138.18208008 41.9389801 137.03672791 C41.13560449 134.65623571 40.33334792 132.27536562 39.53211975 129.89414978 C37.4013616 123.56350818 35.26101207 117.23611739 33.11888123 110.90931702 C32.90381487 110.27392691 32.68874851 109.6385368 32.46716499 108.98389244 C28.51678042 97.31722804 24.48421064 85.68092341 20.40794373 74.05775452 C15.32058253 59.52603812 10.25092482 44.98828879 5.25178528 30.4259491 C4.5284736 28.32268879 3.80246369 26.22035427 3.07362366 24.1190033 C2.06446968 21.20781237 1.06508499 18.29344397 0.06809998 15.37806702 C-0.23420532 14.51247665 -0.53651062 13.64688629 -0.84797668 12.75506592 C-3.41383892 5.189508 -3.41383892 5.189508 -2.90455627 1.12025452 C-1.90455627 0.12025452 -1.90455627 0.12025452 0 0 Z " fill="#161815" transform="translate(1389.904556274414,177.87974548339844)"/>
<path d="M0 0 C3.7563828 1.82749832 7.22095486 3.98995315 10.6875 6.3125 C11.57791992 6.88000977 11.57791992 6.88000977 12.48632812 7.45898438 C16.78899213 10.35849911 16.78899213 10.35849911 17.76683044 13.33129883 C18.03362194 16.38481401 17.55972031 18.20743326 16.53149414 21.0859375 C16.00729385 22.58188194 16.00729385 22.58188194 15.47250366 24.10804749 C15.08067902 25.18614182 14.68885437 26.26423615 14.28515625 27.375 C13.88334137 28.51073959 13.48152649 29.64647919 13.0675354 30.81663513 C11.97212438 33.90553513 10.86597694 36.99032507 9.75490952 40.07361984 C8.59245792 43.30772285 7.44399705 46.54678547 6.29418945 49.78540039 C4.42701819 55.03939711 2.5521291 60.29057238 0.67089844 65.53955078 C-1.6889087 72.12437014 -4.03228642 78.71490474 -6.3671875 85.30859375 C-10.22989511 96.21105847 -14.11187764 107.10657637 -18 118 C-18.7140333 120.00097537 -19.42806316 122.00195196 -20.14208984 124.00292969 C-24.42465531 136.00317024 -28.71072634 148.00215562 -33 160 C-40.05647266 159.41917287 -46.37947276 156.92654645 -53.00390625 154.5390625 C-54.30278031 154.07638089 -55.60187348 153.61431399 -56.90116882 153.15281677 C-59.67533888 152.16611225 -62.44803024 151.17539936 -65.21960449 150.181427 C-69.60926954 148.6072235 -74.0020697 147.04190896 -78.39550781 145.47827148 C-82.89403226 143.8768764 -87.39241733 142.27510149 -91.88973999 140.67033386 C-104.5556609 136.15136046 -117.23832663 131.6811724 -129.92770386 127.22845459 C-148.04229889 120.87116604 -166.14155209 114.47216499 -184.22570801 108.02883911 C-199.80325426 102.47954299 -215.39855182 96.98170866 -231 91.5 C-248.418647 85.37980224 -265.82578689 79.22893583 -283.2171936 73.0317688 C-298.85948945 67.45895897 -314.5206426 61.94084584 -330.1875 56.4375 C-353.15327415 48.3702182 -376.08762262 40.21763739 -399 32 C-398.47385053 27.79306237 -397.80558027 23.93188693 -396.37109375 19.94140625 C-396.08935303 19.14677979 -395.8076123 18.35215332 -395.51733398 17.53344727 C-395.16098877 16.55303467 -394.80464355 15.57262207 -394.4375 14.5625 C-393.303125 11.406875 -392.16875 8.25125 -391 5 C-383.41 5 -375.82 5 -368 5 C-368.99 9.29 -369.98 13.58 -371 18 C-347.01761952 26.55031775 -323.02145588 35.06003482 -299 43.5 C-281.58134143 49.62016494 -264.17421301 55.77106421 -246.7828064 61.9682312 C-231.14051042 67.54104107 -215.47934534 73.05911979 -199.8125 78.5625 C-183.02733355 84.45884581 -166.25647962 90.39216149 -149.50830078 96.39273071 C-131.81701435 102.72921508 -114.09005745 108.96320109 -96.36083984 115.19262695 C-94.10904098 115.98386253 -91.85725048 116.7751219 -89.60546875 117.56640625 C-88.51693604 117.94892044 -87.42840332 118.33143463 -86.30688477 118.72554016 C-72.86023661 123.45263015 -59.42728075 128.21820017 -46 133 C-45.7625708 131.7836084 -45.5251416 130.5672168 -45.28051758 129.31396484 C-43.87636003 123.02154508 -41.68550204 117.03736332 -39.51171875 110.9765625 C-39.05539873 109.69224558 -38.59955002 108.40776111 -38.14413452 107.12312317 C-36.91885588 103.67098631 -35.68711117 100.22118963 -34.45412064 96.77180099 C-33.16732178 93.1683224 -31.88658438 89.56269083 -30.60522461 85.95727539 C-28.48002429 79.97994097 -26.35124103 74.00389417 -24.21972656 68.02880859 C-21.32741408 59.9209049 -18.44139446 51.81077453 -15.5576458 43.69982147 C-10.37786633 29.13103813 -5.19139965 14.56464712 0 0 Z " fill="#00AC1F" transform="translate(1563,356)"/>
<path d="M0 0 C0.74838135 0.03327393 1.4967627 0.06654785 2.26782227 0.10083008 C3.11086914 0.136521 3.95391602 0.17221191 4.82250977 0.20898438 C5.73387695 0.26223877 6.64524414 0.31549316 7.58422852 0.37036133 C8.52782227 0.42297119 9.47141602 0.47558105 10.44360352 0.52978516 C52.12552022 3.16280449 90.22252288 19.81972323 120.88110352 48.10473633 C122.94850731 50.00104464 125.06422944 51.81315739 127.20922852 53.62036133 C157.31166571 80.05763152 178.77167151 123.75966546 182.35717773 163.51635742 C182.52569465 167.09545558 182.39218009 170.61290027 182.14672852 174.18286133 C175.05019763 176.71397336 168.72654646 177.66831344 161.20922852 177.55786133 C159.76942627 177.54916016 159.76942627 177.54916016 158.30053711 177.5402832 C151.59475358 177.41734574 145.42294033 176.70535794 139.14672852 174.18286133 C138.99977539 173.11551758 138.85282227 172.04817383 138.70141602 170.94848633 C132.8253552 130.89022821 112.76059788 96.67466539 80.58422852 71.74536133 C65.47922086 60.64970756 49.5673156 53.32067975 31.69311523 47.80541992 C18.70907647 43.68660116 7.56593235 36.30190923 0.33032227 24.49536133 C-3.22529585 17.54841109 -5.00952069 9.99129755 -3.85327148 2.18286133 C-1.85327148 0.18286133 -1.85327148 0.18286133 0 0 Z " fill="#00AC1F" transform="translate(1658.853271484375,69.817138671875)"/>
<path d="M0 0 C0 10.23 0 20.46 0 31 C-3.63 31.99 -7.26 32.98 -11 34 C-17.10588082 40.10588082 -17.33277851 44.65973131 -18 53 C-11.73 53 -5.46 53 1 53 C1 64.55 1 76.1 1 88 C-5.27 88 -11.54 88 -18 88 C-18 129.91 -18 171.82 -18 215 C-31.86 215 -45.72 215 -60 215 C-60 173.09 -60 131.18 -60 88 C-63.3 88 -66.6 88 -70 88 C-70 76.45 -70 64.9 -70 53 C-66.7 53 -63.4 53 -60 53 C-59.97873047 51.65421875 -59.97873047 51.65421875 -59.95703125 50.28125 C-59.35262148 34.46858362 -55.60832173 19.95006873 -43.75 8.6875 C-32.56765201 -0.16310278 -13.8156645 -4.6052215 0 0 Z " fill="#B3B3B3" transform="translate(256,124)"/>
<path d="M0 0 C4.1754293 0.52486383 8.02417415 1.17804929 11.98999023 2.58789062 C12.9175563 2.91401337 13.84512238 3.24013611 14.80079651 3.57614136 C15.7933696 3.93257721 16.78594269 4.28901306 17.80859375 4.65625 C18.86630478 5.03016876 19.92401581 5.40408752 21.01377869 5.78933716 C24.49056399 7.02008528 27.96399836 8.26001803 31.4375 9.5 C33.87755141 10.36567933 36.31782138 11.23074283 38.75830078 12.09521484 C43.75694392 13.86696215 48.7542713 15.64232552 53.75048828 17.42089844 C60.35047373 19.77007724 66.95370264 22.10996671 73.55859375 24.4453125 C81.45155749 27.23666511 89.34365125 30.03044598 97.234375 32.828125 C98.20702805 33.17297943 99.17968109 33.51783386 100.18180847 33.87313843 C104.10048502 35.26258663 108.01911373 36.65216972 111.93774414 38.04174805 C118.83324446 40.48687562 125.72897497 42.93135266 132.625 45.375 C133.60487885 45.72225128 134.58475769 46.06950256 135.59432983 46.42727661 C152.93232589 52.57040368 170.28344558 58.67589539 187.63702393 64.77484131 C203.83112132 70.46712904 220.01380686 76.19029891 236.1817627 81.9564209 C247.63938896 86.04258322 259.10810628 90.09531908 270.58984375 94.11328125 C273.08203269 94.986324 275.5742202 95.85937086 278.06640625 96.73242188 C282.89690892 98.42433836 287.72920903 100.11098987 292.5625 101.79492188 C294.76959603 102.56752329 296.97663038 103.34030095 299.18359375 104.11328125 C300.69444801 104.63720207 300.69444801 104.63720207 302.23582458 105.17170715 C307.00682939 106.847348 311.54970763 108.59275603 316 111 C309.9241022 117.70641549 300.0294003 119.64307482 291.3671875 120.2578125 C275.45730529 120.80410757 261.29686306 114.81784214 246.52099609 109.52050781 C242.32026423 108.01457226 238.11607351 106.51839878 233.91210938 105.02151489 C231.68407426 104.22810933 229.45621198 103.43421827 227.22851562 102.63986206 C215.96223388 98.62404242 204.67938312 94.65580146 193.39459229 90.69235229 C169.21204099 82.19821865 145.04745416 73.65396921 120.89013672 65.08837891 C106.05747686 59.82912683 91.22326624 54.574259 76.38735962 49.32417297 C69.70539758 46.95911477 63.02504586 44.58955059 56.34535217 42.21809387 C51.59188402 40.53116798 46.83749482 38.84684876 42.08291626 37.16305542 C39.78790393 36.34965666 37.49328313 35.53515233 35.19906616 34.71951294 C32.02174276 33.59007933 28.84307623 32.46450913 25.6640625 31.33984375 C24.71131943 31.00012543 23.75857635 30.6604071 22.77696228 30.31039429 C21.9090657 30.00421173 21.04116913 29.69802917 20.14697266 29.38256836 C19.39018219 29.11407578 18.63339172 28.84558319 17.85366821 28.56895447 C16.00450903 27.90219205 16.00450903 27.90219205 14 28 C13.58862793 29.21953369 13.17725586 30.43906738 12.75341797 31.69555664 C5.74731579 52.44754785 -1.2678259 73.19771001 -8.63421631 93.82516479 C-9.19969869 95.40893404 -9.76345568 96.99332069 -10.32525635 98.57839966 C-13.40063822 107.24304007 -16.6700187 115.80003079 -20.22265625 124.28125 C-20.72031494 125.47189056 -20.72031494 125.47189056 -21.22802734 126.68658447 C-25.87359877 137.62286222 -31.79429456 146.2538687 -43.1875 150.9375 C-46.69353293 151.91459114 -49.39107866 152.2706691 -53 152 C-50.74149301 142.65272924 -47.50307856 133.68775397 -44.25033569 124.65362549 C-42.85216056 120.76992415 -41.46333149 116.88289902 -40.07389832 112.99606323 C-39.30741493 110.85196696 -38.54048519 108.70803021 -37.77314758 106.5642395 C-32.78802374 92.62997953 -27.86093887 78.67516851 -22.92881775 64.72208405 C-20.800898 58.70249722 -18.67194969 52.68327407 -16.54296875 46.6640625 C-16.31692585 46.0249229 -16.09088295 45.38578331 -15.85799026 44.72727585 C-10.58346039 29.81411563 -5.29291351 14.90664404 0 0 Z " fill="#00AC1F" transform="translate(1292,4)"/>
<path d="M0 0 C13.53 0 27.06 0 41 0 C41 68.31 41 136.62 41 207 C27.47 207 13.94 207 0 207 C0 138.69 0 70.38 0 0 Z " fill="#B3B3B3" transform="translate(340,132)"/>
<path d="M0 0 C13.86 0 27.72 0 42 0 C42 53.46 42 106.92 42 162 C28.14 162 14.28 162 0 162 C0 108.54 0 55.08 0 0 Z " fill="#B3B3B3" transform="translate(404,177)"/>
<path d="M0 0 C13.86 0 27.72 0 42 0 C42 53.46 42 106.92 42 162 C28.14 162 14.28 162 0 162 C0 108.54 0 55.08 0 0 Z " fill="#B3B3B3" transform="translate(272,177)"/>
<path d="M0 0 C30.22132609 -1.51950802 57.51003458 9.60378418 79.9453125 29.62890625 C99.10852489 47.9647376 112.15205451 75.35766572 113.07177734 102.0859375 C113.07383331 103.72413177 113.0409421 105.36231614 113 107 C105.45230562 108.61453908 98.27476808 109.32275112 90.5625 109.25 C89.56275146 109.24613281 88.56300293 109.24226563 87.53295898 109.23828125 C80.5164697 109.15610358 73.84300108 108.64820671 67 107 C66.84144531 105.92363281 66.68289063 104.84726563 66.51953125 103.73828125 C63.55698031 84.75568701 56.94498145 67.54303908 41.62109375 55.0625 C37.25083609 51.9198428 32.69402095 49.25148804 28 46.625 C14.24658826 38.6978089 4.78014985 27.17697579 0 12 C-1.67117988 3.34235977 -1.67117988 3.34235977 0 0 Z " fill="#00AC1F" transform="translate(1657,141)"/>
<path d="M0 0 C6.29107434 4.47634136 10.09684445 9.45221954 11.68359375 17 C12.85125814 24.38079216 11.68305428 30.98251661 7.5234375 37.2109375 C2.66273945 43.18138397 -1.81722341 46.55970773 -9.5625 47.375 C-18.29143005 47.65210889 -24.37878531 47.15253166 -30.92578125 41.26953125 C-36.28014049 35.71563067 -38.55995515 30.10708529 -39.375 22.5 C-38.58075113 15.08701052 -36.15159779 7.64530537 -30.3984375 2.59375 C-21.49856374 -4.14976668 -9.95699564 -5.47087673 0 0 Z " fill="#00AC1F" transform="translate(439,110)"/>
<path d="M0 0 C5.57169045 4.33222541 8.68339176 9.85396574 10.09375 16.74609375 C10.91337192 25.1314565 9.21710379 31.43634055 3.90625 37.99609375 C-1.96284173 44.16896869 -6.72230207 45.97500562 -15.28125 46.37109375 C-22.54786951 46.15417973 -27.45190894 44.57969824 -32.90625 39.74609375 C-39.36262688 32.72081481 -40.37973632 26.92055315 -40.171875 17.48046875 C-39.64325035 10.0486281 -36.85092642 6.403705 -31.53125 1.37109375 C-22.32694437 -6.24935409 -10.01552343 -6.58807996 0 0 Z " fill="#00AC1F" transform="translate(308.90625,111.25390625)"/>
<path d="M0 0 C9.01891033 0.16633236 17.44022172 3.9302021 23.97265625 10.03515625 C31.78125839 18.37427913 34.2519358 27.07328785 34.0625 38.25 C27.59436482 39.89311499 21.72369912 40.56148799 15.0625 40.5 C13.80566406 40.51160156 13.80566406 40.51160156 12.5234375 40.5234375 C6.76197123 40.50560014 1.64672738 39.66857389 -3.9375 38.25 C-3.96214928 32.99894558 -3.98033568 27.74792455 -3.99243164 22.49682617 C-3.99747218 20.70905979 -4.00430454 18.92129755 -4.01293945 17.13354492 C-4.0250173 14.56948832 -4.03073094 12.00548603 -4.03515625 9.44140625 C-4.04031754 8.6372377 -4.04547882 7.83306915 -4.05079651 7.00453186 C-4.05099215 5.08598285 -3.99951983 3.16754632 -3.9375 1.25 C-2.9375 0.25 -2.9375 0.25 0 0 Z " fill="#00AC1F" transform="translate(1661.9375,209.75)"/>
</svg>
